<?xml version="1.0" encoding="UTF-8" standalone="no"?>
<!-- Created with Inkscape (http://www.inkscape.org/) -->

<svg
   xmlns:dc="http://purl.org/dc/elements/1.1/"
   xmlns:cc="http://creativecommons.org/ns#"
   xmlns:rdf="http://www.w3.org/1999/02/22-rdf-syntax-ns#"
   xmlns:svg="http://www.w3.org/2000/svg"
   xmlns="http://www.w3.org/2000/svg"
   xmlns:sodipodi="http://sodipodi.sourceforge.net/DTD/sodipodi-0.dtd"
   xmlns:inkscape="http://www.inkscape.org/namespaces/inkscape"
   width="210mm"
   height="297mm"
   viewBox="0 0 744.09448819 1052.3622047"
   id="svg3570"
   version="1.1"
   inkscape:version="0.91 r13725"
   sodipodi:docname="julia3a.svg">
  <defs
     id="defs3572" />
  <sodipodi:namedview
     id="base"
     pagecolor="#ffffff"
     bordercolor="#666666"
     borderopacity="1.0"
     inkscape:pageopacity="0.0"
     inkscape:pageshadow="2"
     inkscape:zoom="0.35"
     inkscape:cx="375"
     inkscape:cy="520"
     inkscape:document-units="px"
     inkscape:current-layer="layer1"
     showgrid="false"
     inkscape:window-width="1280"
     inkscape:window-height="686"
     inkscape:window-x="0"
     inkscape:window-y="0"
     inkscape:window-maximized="1" />
  <metadata
     id="metadata3575">
    <rdf:RDF>
      <cc:Work
         rdf:about="">
        <dc:format>image/svg+xml</dc:format>
        <dc:type
           rdf:resource="http://purl.org/dc/dcmitype/StillImage" />
        <dc:title></dc:title>
      </cc:Work>
    </rdf:RDF>
  </metadata>
  <g
     inkscape:label="Layer 1"
     inkscape:groupmode="layer"
     id="layer1">
    <path
       style="fill:#000000"
       d="m 334.86301,718.47853 c 0,-2.495 6.34053,-3.76797 9.52718,-1.91274 1.61884,0.94246 2.56923,1.78683 2.11197,1.87634 -6.35614,1.2445 -11.63915,1.26102 -11.63915,0.0364 z m 7.06663,-4.59697 c -3.78517,-0.72906 -4.7001,-3.13049 -2.46865,-6.47956 0.67188,-1.00839 4.21452,-1.67385 7.87254,-1.4788 9.26405,0.49398 9.14505,0.44006 9.14505,4.1436 0,2.24876 -1.10849,3.32547 -3.42361,3.32547 -1.88297,0 -3.00961,-0.66982 -2.50364,-1.48852 1.09024,-1.76403 -4.06805,-4.07542 -5.53421,-2.47982 -0.55499,0.60398 -0.0739,1.43217 1.06936,1.84044 2.20737,0.78834 2.94435,3.94786 0.83137,3.56421 -0.68588,-0.12452 -2.93058,-0.5507 -4.98821,-0.94702 z m 11.36953,-11.12107 c -1.17112,-1.41114 -4.55603,-2.18369 -8.65148,-1.97459 -6.22617,0.31788 -6.67228,0.0538 -5.98461,-3.54342 0.40866,-2.1378 -0.0922,-4.42922 -1.11285,-5.09204 -1.02072,-0.66282 -2.85775,-2.48438 -4.0823,-4.04795 -1.95488,-2.49608 -1.81812,-2.76417 1.12113,-2.19814 2.76362,0.53223 3.5398,-0.49311 4.44954,-5.87781 1.15745,-6.85084 4.06301,-10.54212 4.24349,-5.39103 0.0848,2.42233 0.39815,2.27957 1.60914,-0.73323 0.82708,-2.05764 2.46316,-3.80351 3.63578,-3.87972 1.17259,-0.0761 3.8264,-0.3261 5.89735,-0.55528 4.49405,-0.49736 10.3679,3.2462 10.3679,6.6077 0,1.31991 0.74824,2.39982 1.66274,2.39982 0.91451,0 1.66274,-3.40596 1.66274,-7.56881 0,-6.91486 -0.43098,-7.71905 -4.98821,-9.3077 -2.74352,-0.95641 -4.98821,-2.78806 -4.98821,-4.07036 0,-1.52708 -1.86437,-2.32266 -5.4039,-2.30598 -4.10067,0.0192 -4.8024,0.41417 -2.90978,1.63728 1.37175,0.8865 2.11998,1.67482 1.66273,1.75184 -0.45725,0.077 -2.99368,0.4227 -5.63651,0.7682 -6.98643,0.91333 -9.67921,2.21767 -8.50401,4.11917 0.56917,0.92096 -0.13172,1.67447 -1.55734,1.67447 -1.42574,0 -2.59224,1.12235 -2.59224,2.49411 0,3.45418 -2.9131,3.139 -3.84203,-0.41569 -0.57224,-2.18967 -0.80816,-1.98392 -0.9533,0.83137 -0.19251,3.73399 -3.51835,5.45819 -3.51835,1.824 0,-1.05443 -1.39716,-0.3062 -3.10483,1.66274 -3.2018,3.69172 -10.19706,4.93958 -10.19706,1.81902 0,-0.96847 -0.68546,-1.33723 -1.5232,-0.81946 -0.83778,0.51776 -3.4301,0.21638 -5.76072,-0.66973 -2.92761,-1.11305 -4.59211,-1.03732 -5.38466,0.24503 -0.69672,1.12732 -0.39338,1.39027 0.77251,0.6697 1.21363,-0.75006 1.91965,0.0726 1.91965,2.23719 0,3.56266 -2.65393,3.90193 -6.05429,0.77397 -2.30558,-2.12086 -2.16813,-7.61439 0.23471,-9.37974 0.93895,-0.68983 0.39612,-1.23268 -1.24705,-1.24705 -2.90013,-0.0255 -3.55828,1.52098 -2.99675,7.04117 0.16276,1.60039 -0.49927,2.90979 -1.47127,2.90979 -0.97198,0 -1.7787,-0.93529 -1.7927,-2.07842 -0.0185,-1.43588 -0.40311,-1.51364 -1.24706,-0.25148 -0.67187,1.00479 -2.64569,1.81538 -4.38626,1.80128 -2.95496,-0.024 -2.92743,-0.21773 0.41569,-2.92481 1.96919,-1.59454 3.58035,-4.58749 3.58035,-6.65094 0,-2.06346 0.45104,-3.3007 1.00233,-2.74943 0.55129,0.55129 2.76949,0.33048 4.92935,-0.49071 2.44038,-0.92783 4.30752,-0.87737 4.93214,0.13339 0.5528,0.89449 1.70164,1.19585 2.55297,0.66971 0.8513,-0.52615 1.54784,0.48023 1.54784,2.2364 0,2.52738 0.88537,3.0238 4.2469,2.38118 3.44604,-0.65875 4.15156,-1.63434 3.74116,-5.1733 -0.28653,-2.47109 -1.42666,-4.17462 -2.63045,-3.93036 -1.16857,0.2371 -2.57042,-0.7305 -3.11521,-2.15023 -0.88188,-2.29811 -1.32941,-2.27463 -4.07939,0.21406 -2.52101,2.2815 -3.55307,2.41008 -5.61414,0.69957 -2.0496,-1.70101 -2.53525,-1.66595 -2.57817,0.18621 -0.0406,1.7484 -0.52651,1.66468 -2.07842,-0.35804 -1.11405,-1.45202 -2.89225,-2.34782 -3.95158,-1.99065 -3.25313,1.09683 -4.59666,-3.21346 -1.66893,-5.35427 2.51195,-1.83679 2.47992,-2.22687 -0.39665,-4.83014 -1.7211,-1.55758 -5.26824,-3.11214 -7.88252,-3.45459 -2.61427,-0.34247 -4.94029,-0.76774 -5.16891,-0.94506 -0.22863,-0.17736 -1.10157,-0.41593 -1.93986,-0.53025 -3.21372,-0.43822 -3.75662,-2.64689 -1.26348,-5.14004 2.35346,-2.35345 2.74935,-2.32326 4.2301,0.32265 0.89846,1.60552 2.14711,2.40561 2.77471,1.778 1.54282,-1.54282 -7.55889,-9.82519 -9.48739,-8.6333 -3.10525,1.91915 -6.54767,-3.05757 -5.47936,-7.92155 0.79804,-3.63353 0.43144,-4.72336 -1.58882,-4.72336 -1.44442,0 -2.62622,-1.12234 -2.62622,-2.4941 0,-3.42448 4.45789,-3.14649 6.44363,0.40183 0.89135,1.59277 2.23676,2.27983 2.98978,1.5268 0.75304,-0.75304 0.0608,-2.32577 -1.53801,-3.49493 -1.59896,-1.16922 -2.90719,-2.8975 -2.90719,-3.84068 0,-0.94318 -1.98735,-2.21366 -4.41632,-2.82329 -4.16911,-1.04638 -4.25618,-1.26592 -1.55549,-3.92142 2.69011,-2.64506 3.05297,-2.57864 6.07908,1.11237 l 3.21821,3.92537 0,-4.45981 c 0,-2.45288 -1.12235,-5.58215 -2.49411,-6.95391 -3.39058,-3.3906 -3.14466,-6.14003 0.46479,-5.19615 3.30554,0.86442 7.01753,-2.29856 7.01753,-5.97962 0,-1.51054 1.12826,-2.11358 3.02594,-1.61733 1.66427,0.43522 3.99457,-0.37583 5.17846,-1.80233 1.38874,-1.67332 3.55999,-2.24039 6.11911,-1.59809 2.30117,0.57758 3.96659,0.2597 3.96659,-0.75705 0,-1.79625 17.01286,-1.25629 20.07656,0.6372 2.01047,1.24253 8.18996,-0.68506 8.18996,-2.5547 0,-0.78254 -2.32665,-3.74945 -5.17035,-6.59316 -3.55135,-3.55134 -6.15462,-4.85794 -8.31369,-4.17269 -1.72882,0.5487 -3.14333,0.22247 -3.14333,-0.72495 0,-0.94743 -1.12234,-1.29191 -2.4941,-0.76553 -1.37176,0.52641 -2.49411,0.14318 -2.49411,-0.85172 0,-1.18723 -2.57123,-1.45639 -7.48231,-0.78326 -6.8606,0.94035 -7.48231,0.72929 -7.48231,-2.54 0,-3.14935 -0.3882,-3.32315 -3.32548,-1.4888 -1.82901,1.14225 -3.32547,2.86954 -3.32547,3.83841 0,0.96888 -2.57067,1.76158 -5.71261,1.76158 -4.33655,0 -5.94524,-0.82108 -6.67827,-3.40861 -0.90778,-3.20433 -1.09957,-3.23423 -3.20007,-0.49882 -1.22891,1.60038 -3.0872,2.90979 -4.12951,2.90979 -1.04232,0 -1.89512,0.74823 -1.89512,1.66273 0,0.91451 0.79239,1.66274 1.76088,1.66274 0.96847,0 1.26689,0.79924 0.66317,1.77608 -0.60374,0.97686 -1.98863,1.43422 -3.07757,1.01636 -1.08895,-0.41787 -3.34582,0.23903 -5.01528,1.45977 -2.55204,1.86609 -3.64015,1.82326 -6.83329,-0.26896 -3.59604,-2.35621 -3.93241,-2.21886 -6.32827,2.58371 -1.39167,2.7897 -1.83945,5.0722 -0.99503,5.0722 3.99886,0 0.9145,4.86032 -3.732,5.88086 -4.35422,0.95636 -4.78655,1.42592 -2.4941,2.70885 1.52524,0.85356 2.77318,2.29696 2.77318,3.20749 0,2.20529 -13.88952,0.57315 -14.6546,-1.72205 -0.70766,-2.12304 -10.28644,-2.38729 -10.28644,-0.28378 0,0.81273 2.60972,1.96726 5.79938,2.56566 6.16053,1.15573 9.81295,5.63594 8.14277,9.98832 -0.74017,1.92892 -0.28811,2.35619 1.68988,1.59715 3.75499,-1.44091 8.61894,2.62448 5.64656,4.71951 -1.70325,1.20049 -1.71981,1.69786 -0.0787,2.36374 1.14313,0.46387 2.07842,1.59638 2.07842,2.5167 0,1.96124 -6.72703,7.86508 -9.14505,8.02596 -2.55694,0.17015 -9.74477,6.60548 -8.62667,7.72358 1.8539,1.85389 9.45803,-1.12656 9.45803,-3.70709 0,-3.69078 14.71916,-2.37901 16.89304,1.50551 1.10895,1.98156 0.93519,2.79907 -0.59873,2.81714 -1.67628,0.0198 -1.64704,0.35104 0.13043,1.47684 1.26028,0.79826 1.80146,2.24414 1.20264,3.21309 -0.66859,1.08178 0.21181,1.51125 2.28107,1.11274 1.85343,-0.35695 3.36988,0.14115 3.36988,1.10702 0,1.00529 -2.13247,1.44299 -4.98821,1.02385 -2.74351,-0.40265 -4.9882,-0.29611 -4.9882,0.23676 0,0.53287 2.24469,1.96247 4.9882,3.17688 2.74352,1.21439 4.98821,3.26763 4.98821,4.56273 0,3.12981 -2.79696,3.00388 -4.59375,-0.20684 -0.91855,-1.64134 -2.51437,-2.14683 -4.44215,-1.40708 -2.7672,1.06188 -2.69215,1.41064 0.93524,4.34717 2.67078,2.16209 3.27293,3.4661 1.8654,4.03974 -2.94942,1.20205 -2.59435,4.44919 0.36242,3.31456 1.34248,-0.51514 2.95016,-0.11251 3.57261,0.89455 0.75696,1.22477 -0.32319,1.55307 -3.26167,0.99134 -2.59158,-0.4954 -5.15691,0.0802 -6.25509,1.40337 -1.02393,1.23375 -2.52516,1.83317 -3.33604,1.332 -2.75787,-1.70445 -1.48691,-5.80522 2.26683,-7.31406 3.45276,-1.38783 3.45276,-1.71757 0,-2.36353 -0.68588,-0.1284 -2.18235,-0.82717 -3.32548,-1.55303 -1.56212,-0.99188 -2.07842,0.75684 -2.07842,7.03991 0,6.47901 -0.52324,8.15883 -2.32593,7.4671 -1.27925,-0.4909 -2.81985,-0.0933 -3.42359,0.88356 -2.21297,3.58064 -4.11607,1.63764 -3.14612,-3.21213 0.80299,-4.01494 0.43261,-4.98821 -1.89823,-4.98821 -1.9895,0 -2.64638,-0.9541 -2.09873,-3.04835 0.95249,-3.64227 -3.041,-4.1574 -7.6668,-0.98904 -1.70538,1.16808 -4.13713,1.72607 -5.4039,1.23994 -1.37364,-0.5271 -2.30322,0.19462 -2.30322,1.78818 0,1.4696 -1.12235,2.672 -2.4941,2.672 -1.38562,0 -2.49411,1.47799 -2.49411,3.32548 0,2.61413 -1.10849,3.32547 -5.18214,3.32547 -4.27635,0 -5.03744,-0.55332 -4.35426,-3.16574 0.64743,-2.47583 -0.21619,-3.31895 -3.96293,-3.86887 -2.83297,-0.41578 -4.79077,0.0539 -4.79077,1.14917 0,2.71201 -6.67565,2.76755 -7.71303,0.0641 -0.66121,-1.72306 -1.92136,-1.90799 -5.0072,-0.73475 -5.33652,2.02895 -6.01848,1.97613 -4.57809,-0.35449 0.84794,-1.37198 -0.29552,-1.62559 -3.99424,-0.88584 -2.85024,0.57006 -5.59396,0.3703 -6.09716,-0.44389 -0.50322,-0.81419 -3.15102,-1.97147 -5.88406,-2.57176 -3.41326,-0.74967 -4.96914,-2.09126 -4.96914,-4.28476 0,-1.75633 -0.74823,-3.19336 -1.66274,-3.19336 -0.9145,0 -1.66273,-1.12234 -1.66273,-2.4941 0,-1.37176 0.74823,-2.49411 1.66273,-2.49411 0.91451,0 1.66274,-1.12234 1.66274,-2.4941 0,-3.02544 -3.94575,-3.28814 -6.24385,-0.41569 -3.44211,4.30241 -3.94067,9.63185 -1.381,14.76283 1.42079,2.84803 2.2361,5.73997 1.81179,6.42652 -0.66417,1.07462 8.2118,2.95468 17.90906,3.79338 1.66438,0.14392 2.5933,1.18731 2.13061,2.39305 -0.45119,1.17579 0.27851,2.1378 1.62156,2.1378 1.49624,0 2.44193,1.60984 2.44193,4.15684 0,2.547 -0.94569,4.15684 -2.44193,4.15684 -1.567,0 -2.11288,1.04255 -1.52355,2.90979 0.70273,2.22655 0.1478,2.04116 -2.3633,-0.78958 l -3.28163,-3.69937 -1.01435,3.69937 c -0.83417,3.04237 -1.29446,3.26353 -2.5917,1.24528 -1.29201,-2.01008 -1.87461,-1.70927 -3.22011,1.66274 -1.51171,3.78843 -1.65114,3.83464 -1.74813,0.57926 -0.058,-1.94566 1.04187,-4.48972 2.44407,-5.65345 2.95869,-2.4555 2.48524,-5.30685 -0.97687,-5.88338 -1.32217,-0.22016 -3.63768,-0.89773 -5.14558,-1.50568 -1.50788,-0.60795 -3.22608,-0.32144 -3.81824,0.63666 -0.97955,1.58494 -2.21899,1.21243 -9.0574,-2.72219 -0.35895,-0.20653 0.29384,-1.51594 1.45064,-2.90979 1.33247,-1.60552 1.44958,-2.53429 0.31956,-2.53429 -0.98103,0 -2.61254,1.30941 -3.62558,2.90979 -1.31899,2.08376 -2.0898,2.31976 -2.71526,0.83137 -0.48039,-1.14313 -1.93343,-2.07842 -3.22898,-2.07842 -1.29555,0 -2.35555,-0.66818 -2.35555,-1.48484 0,-2.39824 5.44589,-3.79043 6.72587,-1.71944 0.7777,1.25838 1.52698,1.32245 2.22662,0.19037 0.57998,-0.93842 -0.0746,-2.83543 -1.45489,-4.2156 -3.29617,-3.29617 -3.17147,-5.44634 0.4004,-6.90434 2.66866,-1.08928 2.6342,-1.29555 -0.41568,-2.48886 -3.1115,-1.21742 -3.04041,-1.41379 1.10478,-3.05175 2.43663,-0.96285 4.96121,-3.477 5.6102,-5.58704 1.78644,-5.80825 6.70247,-9.65597 12.33697,-9.65597 2.78174,0 5.05773,-0.8642 5.05773,-1.92044 0,-1.14903 1.22141,-0.81507 3.04072,0.83137 1.67238,1.51349 3.91709,2.75181 4.98821,2.75181 1.07111,0 1.94749,0.74823 1.94749,1.66273 0,0.91451 1.12234,1.66274 2.4941,1.66274 4.0483,0 2.86349,-4.7392 -2.4941,-9.97642 -2.74352,-2.68188 -4.98821,-4.03716 -4.98821,-3.01173 0,1.02543 -1.4686,0.53533 -3.26355,-1.08906 -1.79494,-1.62442 -4.41292,-2.51241 -5.81773,-1.97333 -1.40479,0.53906 -4.1927,0.374 -6.19534,-0.36684 -3.89366,-1.44034 -12.9899,1.13911 -12.9899,3.68361 0,0.82601 -1.12235,0.57034 -2.49411,-0.56812 -2.12023,-1.75962 -2.4941,-1.34148 -2.4941,2.78933 0,5.75447 -2.67243,8.94414 -6.43788,7.68393 -1.48894,-0.4983 -0.93248,0.41469 1.23658,2.02887 3.40715,2.53555 3.58623,3.13498 1.31613,4.40541 -1.57574,0.88182 -2.20693,2.56693 -1.57668,4.20931 0.79133,2.06221 0.36353,2.475 -1.7318,1.67093 -1.760742,-0.67564 -2.782771,-0.2378 -2.782771,1.19217 0,2.75877 -11.222862,4.46147 -15.380313,2.33346 -4.54618,-2.32696 -3.420212,-4.32106 2.078421,-3.68083 5.667345,0.65986 7.175096,-3.38275 1.787146,-4.79171 -2.241295,-0.58612 -2.93667,-0.14817 -2.31924,1.46091 0.722828,1.88366 0.02586,1.85159 -3.865567,-0.17791 -2.611051,-1.36178 -6.430911,-2.48058 -8.488547,-2.48623 -2.212437,-0.007 -3.741157,-1.0294 -3.741157,-2.50434 0,-1.37176 -0.772341,-2.49411 -1.716314,-2.49411 -0.943991,0 -2.317227,-1.6244 -3.051657,-3.60974 -0.806871,-2.18116 -1.778777,-2.89228 -2.455807,-1.79679 -0.616265,0.99712 0.0074,2.94219 1.388921,4.32235 3.995852,3.99587 3.113456,7.73513 -1.825352,7.73513 -3.071259,0 -4.069363,-0.69153 -3.424314,-2.37254 0.500743,-1.30488 -0.130617,-3.23661 -1.403201,-4.29267 -1.920664,-1.59401 -1.470525,-2.74433 2.650272,-6.77253 5.230674,-5.11315 9.564393,-6.00538 15.011001,-3.09044 3.009146,1.61046 3.111072,1.4719 1.185494,-1.61143 -3.511773,-5.62326 -10.619178,-6.08874 -17.131008,-1.12192 -3.398948,2.5925 -6.068785,3.6341 -6.699424,2.61367 -0.576674,-0.93307 -1.693331,-1.29797 -2.48145,-0.81088 -0.788118,0.48709 -1.902928,0.12526 -2.477348,-0.80424 -0.574401,-0.92942 0.09866,-1.68986 1.495669,-1.68986 1.484897,0 2.171774,-0.95971 1.65348,-2.31035 -0.512584,-1.33575 -2.244103,-1.95536 -4.104649,-1.46881 -4.601273,1.20325 -3.983012,-1.98948 0.807979,-4.1724 2.939718,-1.33942 3.784702,-2.75741 3.131561,-5.25511 -0.492004,-1.88139 -0.15057,-3.4207 0.758522,-3.4207 2.926675,0 5.804262,4.8709 4.906273,8.30482 -1.223441,4.67844 1.230462,4.16382 3.458049,-0.72518 1.823006,-4.00108 9.547377,-5.63797 8.037465,-1.70325 -0.391261,1.01967 2.549899,2.70762 6.610024,3.79354 5.560246,1.48715 7.314969,2.75572 7.314969,5.28831 0,1.83252 0.677824,3.33187 1.506292,3.33187 0.828467,0 0.64141,1.86474 -0.415684,4.14387 -1.409946,3.03987 -3.228776,4.14731 -6.827049,4.15684 -8.090691,0.0214 -2.64061,3.05367 6.983494,3.88541 8.867558,0.76637 9.459012,0.36717 8.816327,-5.95086 -0.162763,-1.60039 0.686323,-2.92125 1.886948,-2.93525 1.747,-0.0205 1.732368,-0.31095 -0.07316,-1.45502 -2.722546,-1.72507 -1.040854,-11.8143 1.972579,-11.83438 2.860054,-0.0192 6.053287,-7.68547 4.03984,-9.69893 -0.900631,-0.90061 -1.107106,-2.49569 -0.45886,-3.54462 0.822408,-1.33069 1.808041,-1.04642 3.260917,0.94052 1.25306,1.71369 2.91881,2.3306 4.18312,1.54921 1.22096,-0.75459 2.70876,-0.33869 3.55225,0.99302 1.08394,1.71134 1.45781,1.36917 1.47684,-1.35157 0.0129,-2.00367 0.77369,-4.10546 1.6882,-4.67066 0.98367,-0.60795 1.66273,1.27597 1.66273,4.61297 0,7.10202 1.23571,8.34522 5.3975,5.43018 1.81388,-1.27048 4.33439,-1.91226 5.60117,-1.42613 1.26677,0.48609 2.30323,0.007 2.30323,-1.06725 0,-1.1475 1.88323,-1.73439 4.57252,-1.42495 2.72214,0.3132 4.57253,1.53543 4.57253,3.02023 0,1.62823 -1.58742,2.47134 -4.57253,2.42856 -2.51489,-0.036 -4.57252,0.45867 -4.57252,1.09936 0,1.87106 19.89172,2.47953 20.55992,0.62892 0.33022,-0.9145 1.18353,-1.11963 1.89633,-0.45586 0.71276,0.66378 0.34947,2.3473 -0.80733,3.74115 -1.80657,2.17676 -1.38467,2.53429 2.99039,2.53429 2.80151,0 5.55609,0.74823 6.12129,1.66274 0.5652,0.9145 0.23524,1.66273 -0.73323,1.66273 -0.96847,0 -1.76085,0.74823 -1.76085,1.66274 0,0.9145 1.87056,1.66274 4.15682,1.66274 4.19887,0 5.55714,2.26377 2.4941,4.15684 -2.513,1.5531 -1.99225,4.15684 0.83137,4.15684 1.37176,0 2.49411,0.79238 2.49411,1.76087 0,0.96847 -0.8284,1.24888 -1.84087,0.62314 -1.2388,-0.7656 -1.47406,0.0185 -0.71934,2.39597 0.66539,2.09652 0.3997,3.5337 -0.65327,3.5337 -0.97614,0 -1.77479,1.34615 -1.77479,2.99145 0,3.151 -8.05054,6.98497 -14.66698,6.98497 -4.61125,0 -4.71049,2.75624 -0.15131,4.20327 5.14554,1.63314 20.17517,1.2118 21.31355,-0.59751 0.5429,-0.86284 3.98004,-1.46597 7.63806,-1.34023 5.99692,0.20609 6.59979,-0.1393 6.13073,-3.51258 -0.39876,-2.86774 0.30348,-3.74116 3.00793,-3.74116 2.24621,0 3.09645,-0.69844 2.34009,-1.92223 -1.20823,-1.95499 6.09613,-1.36751 13.46229,1.08275 2.45768,0.81751 2.07044,0.0296 -1.48397,-3.01968 -3.18916,-2.73592 -4.53044,-5.19265 -3.98133,-7.29244 0.70949,-2.71311 0.0887,-3.06143 -4.33562,-2.43238 -5.06638,0.72035 -5.1075,0.67111 -2.18214,-2.61189 2.69725,-3.02701 2.72511,-3.4445 0.29214,-4.37811 -2.44701,-0.93902 -2.45348,-1.26797 -0.0719,-3.64969 1.43969,-1.43971 2.61764,-3.14839 2.61764,-3.79708 0,-0.64869 2.2447,-2.02671 4.98821,-3.06228 2.74352,-1.03555 4.98821,-3.07017 4.98821,-4.52139 0,-3.86324 -2.93926,-3.22657 -7.41883,1.60696 -5.24448,5.65887 -12.31096,6.18442 -17.01229,1.26522 -2.00582,-2.09876 -4.65134,-3.43049 -5.87898,-2.95941 -1.43097,0.54912 -2.23204,-0.39688 -2.23204,-2.63583 0,-2.74132 0.81737,-3.33613 3.80056,-2.76587 2.0903,0.39959 3.80053,0.17773 3.80053,-0.49311 0,-0.67082 -2.83258,-1.67262 -6.29464,-2.22622 -4.87765,-0.77997 -6.29466,-1.76356 -6.29466,-4.36934 0,-3.97414 1.47263,-4.26555 4.79027,-0.94789 3.92709,3.92709 4.46469,1.0372 0.56343,-3.02862 -1.96471,-2.04758 -4.50747,-3.41533 -5.6506,-3.03943 -1.31499,0.43241 -2.07843,-0.9499 -2.07843,-3.76334 0,-3.68544 0.56757,-4.26666 3.31502,-3.39464 2.67472,0.84892 3.11085,0.46913 2.25805,-1.96637 -1.01126,-2.88792 -0.92228,-2.89147 2.05636,-0.0818 2.48637,2.34525 2.73498,3.54254 1.23457,5.94506 -1.60321,2.56716 -1.35456,2.9709 1.69525,2.75264 3.6471,-0.26101 6.40564,-7.47753 2.85828,-7.47753 -2.1104,0 -2.43325,-14.36364 -0.35172,-15.65008 0.78464,-0.48495 2.82236,1.71001 4.52826,4.87768 1.70589,3.16766 3.86978,5.67632 4.80863,5.57478 4.32663,-0.46793 5.86383,0.45873 5.86383,3.53485 0,3.39368 2.53874,4.16107 7.48573,2.26273 2.15348,-0.82638 2.28874,-1.35992 0.60802,-2.39865 -2.47332,-1.52859 4.72454,-4.85229 10.50818,-4.85229 2.61682,0 2.99956,-0.5076 1.62841,-2.15973 -2.51524,-3.03067 -1.55624,-11.54863 1.41061,-12.52951 2.11421,-0.69898 2.14104,-0.4192 0.18671,1.94832 -1.48349,1.79716 -1.62896,2.7645 -0.41568,2.7645 1.93867,0 2.34545,-1.31779 2.56641,-8.31368 0.097,-3.07047 1.1702,-4.30372 4.10648,-4.71885 3.06284,-0.43301 3.74265,0.044 2.96198,2.07842 -1.65141,4.30348 1.20807,2.97765 3.29848,-1.52938 1.0571,-2.27913 1.24415,-4.14387 0.41569,-4.14387 -0.82847,0 -1.50629,-1.12235 -1.50629,-2.49411 0,-3.49016 8.9845,-3.24849 12.57111,0.33813 2.66783,2.66784 2.76857,2.63163 1.73544,-0.62353 -0.91883,-2.89497 -0.39453,-3.45576 3.23081,-3.45576 3.08637,0 3.81494,0.51268 2.54018,1.78745 -0.9831,0.98308 -1.78744,3.047 -1.78744,4.58643 0,3.44529 -6.10528,5.25865 -10.24523,3.043 -2.56143,-1.37084 -3.05666,-1.00681 -3.05666,2.24693 0,5.72705 3.0297,8.14864 7.32136,5.85183 4.16125,-2.22703 4.34648,-2.20852 6.31923,0.63245 1.07769,1.55194 1.24677,1.16253 0.56167,-1.29346 -0.84179,-3.01768 0.0665,-3.80697 6.43237,-5.58927 6.70419,-1.87707 15.94557,-9.44159 15.94557,-13.05226 0,-0.77 1.15453,-1.40001 2.56566,-1.40001 1.42897,0 2.19621,0.96275 1.73179,2.17301 -0.45862,1.19516 0.44447,2.92733 2.00687,3.84929 2.48453,1.46611 2.52801,1.8854 0.34662,3.34399 -1.37175,0.91724 -4.55174,1.67916 -7.06663,1.69316 -2.77246,0.0148 -4.57252,0.93101 -4.57252,2.32573 0,2.59208 8.83985,4.91706 9.6993,2.55102 0.30483,-0.8392 1.52262,-1.52581 2.70619,-1.52581 1.18357,0 3.0465,-1.07788 4.13985,-2.39527 2.31122,-2.78488 6.73297,-1.64097 6.73297,1.74179 0,2.11696 3.37231,3.19711 7.44865,2.38579 0.896,-0.17828 3.51481,-0.65281 5.81958,-1.05438 2.30478,-0.40157 6.62226,-1.17742 9.5944,-1.72411 4.64858,-0.85507 5.40389,-0.52219 5.40389,2.38163 0,1.85659 -0.93529,3.73584 -2.07842,4.17611 -1.14313,0.44024 -0.58196,0.81219 1.24705,0.82655 1.82901,0.0148 5.009,0.55201 7.06663,1.19477 2.05764,0.64275 3.74116,0.49239 3.74116,-0.33416 0,-2.11208 6.36255,-2.35957 7.63724,-0.29711 0.57847,0.93601 0.2191,2.53451 -0.79863,3.55223 -3.35521,3.35522 -2.20759,7.99281 1.89076,7.64059 8.069,-0.69347 10.12479,0.007 7.898,2.68977 -1.13846,1.37176 -3.28772,2.51899 -4.77612,2.54942 -2.10466,0.043 -1.83365,0.78223 1.21915,3.32547 2.15897,1.79859 5.05646,3.27016 6.43888,3.27016 2.07858,0 2.14446,0.44466 0.38076,2.56978 -1.173,1.41338 -3.1352,2.18508 -4.36043,1.71491 -1.22525,-0.47015 -2.22772,0.16406 -2.22772,1.40919 0,1.2452 1.12235,2.6947 2.49411,3.22111 1.37175,0.52638 2.4941,1.72876 2.4941,2.672 0,0.94319 -1.12235,1.7149 -2.4941,1.7149 -1.42783,0 -2.49411,1.49776 -2.49411,3.50337 0,2.431 -0.76345,3.2104 -2.4941,2.54628 -1.69647,-0.65098 -2.49411,0.0898 -2.49411,2.31621 0,1.80111 -1.12175,3.2733 -2.4941,3.2733 -1.37176,0 -2.49411,0.74823 -2.49411,1.66274 0,0.9145 -1.12234,1.66273 -2.4941,1.66273 -1.37176,0 -2.49411,1.10811 -2.49411,2.46244 0,3.26894 7.69772,5.10691 10.75654,2.5683 1.31983,-1.09535 3.18069,-1.50886 4.13526,-0.9189 0.95456,0.58996 1.73557,0.28025 1.73557,-0.68823 0,-0.96848 2.15744,-1.76087 4.79428,-1.76087 3.39592,0 5.04794,-0.96995 5.66391,-3.32547 0.63233,-2.41799 2.26799,-3.32548 5.9939,-3.32548 4.30608,0 5.06104,-0.59025 4.7282,-3.69668 -0.21786,-2.03318 0.47685,-3.7167 1.54377,-3.74114 1.06693,-0.0244 2.50104,-0.60566 3.18692,-1.29154 0.68587,-0.68588 2.29814,-1.24706 3.58281,-1.24706 2.3017,0 7.08641,-3.84916 7.08641,-5.7008 0,-0.52258 -1.12235,-0.95014 -2.4941,-0.95014 -1.37176,0 -2.49411,-1.14583 -2.49411,-2.54628 0,-1.40047 1.12235,-2.97698 2.49411,-3.50337 1.37175,-0.5264 2.4941,-1.91933 2.4941,-3.0954 0,-2.70258 4.54672,-4.55365 5.88121,-2.39436 0.54974,0.88949 1.64436,1.21871 2.43247,0.73162 0.78812,-0.48709 1.90293,-0.12526 2.47735,0.80425 0.5744,0.92941 2.30964,1.66972 3.85605,1.64513 1.97526,-0.0314 1.08049,-1.4847 -3.00792,-4.88536 -4.66594,-3.88107 -5.40757,-5.25658 -3.74116,-6.93877 2.86236,-2.8895 2.61072,-5.31856 -0.43011,-4.15168 -1.3797,0.52943 -4.55969,0.15833 -7.06663,-0.82472 -4.42013,-1.73322 -4.45,-1.82894 -0.9871,-3.1623 4.40659,-1.69672 6.62525,-4.93349 3.38166,-4.93349 -3.84634,0 -7.02491,-4.74968 -4.72064,-7.05396 1.45794,-1.45794 1.92482,-1.42007 1.92482,0.15611 0,1.14452 1.68352,0.35202 3.74116,-1.76113 2.29214,-2.35395 5.99522,-3.97 9.56073,-4.17232 11.31528,-0.64211 16.62737,-2.21451 16.62737,-4.92172 0,-2.17793 -1.23179,-2.43408 -7.06663,-1.46955 -13.66834,2.25942 -17.87442,2.43926 -17.87442,0.76412 0,-0.92985 -0.781,-1.20799 -1.73556,-0.61804 -0.95458,0.58996 -2.89771,0.10827 -4.31806,-1.07061 -2.30505,-1.91302 -2.3098,-2.24097 -0.0441,-3.05293 1.54714,-0.55445 -0.82463,-2.01932 -6.07405,-3.75149 -5.77659,-1.90611 -7.65421,-2.11951 -5.7025,-0.64806 1.60038,1.20656 2.90979,3.42067 2.90979,4.92024 0,2.86061 -1.91727,3.58043 -3.99708,1.50064 -0.67422,-0.67422 -2.45774,-1.2354 -3.96339,-1.24705 -1.93319,-0.0148 -2.82076,-1.65166 -3.02086,-5.57039 -0.15574,-3.05205 -1.1999,-6.41909 -2.32018,-7.48232 -1.58575,-1.50496 -1.80039,-1.14812 -0.96908,1.61112 0.71804,2.38339 0.23465,3.86394 -1.47586,4.52033 -1.39901,0.53685 -2.54366,0.17127 -2.54366,-0.81233 0,-0.98366 -1.11479,-1.36068 -2.47731,-0.83782 -2.08174,0.79883 -2.36469,-0.8056 -1.77194,-10.04858 0.42293,-6.59525 1.58124,-11.55465 2.89298,-12.38643 1.75008,-1.10976 1.70541,-1.39234 -0.22333,-1.4127 -1.87519,-0.0198 -1.96757,-0.46885 -0.41568,-2.02074 1.09741,-1.0974 1.99528,-3.3421 1.99528,-4.98821 0,-3.52548 -8.06698,-4.23726 -11.3066,-0.99764 -2.40975,2.40973 -2.67143,11.30661 -0.33255,11.30661 0.9145,0 1.66273,2.61881 1.66273,5.81958 0,3.91232 -0.77199,5.81957 -2.35554,5.81957 -1.29555,0 -2.73503,0.93529 -3.1989,2.07842 -0.64972,1.60129 -1.16876,1.62143 -2.26086,0.0878 -0.9434,-1.32483 -2.23705,-1.46387 -3.86773,-0.41568 -2.03668,1.30914 -2.06948,1.82051 -0.1943,3.02985 1.6407,1.05811 1.7342,1.77736 0.34286,2.63725 -1.0522,0.6503 -3.06509,0.22628 -4.47308,-0.94224 -1.40798,-1.16853 -3.99365,-2.23022 -5.74594,-2.35933 -1.75226,-0.12895 -3.69284,-0.74161 -4.31241,-1.36119 -1.90594,-1.90594 5.05732,-6.14567 9.02286,-5.49377 4.43754,0.72952 4.90917,-1.85999 0.87589,-4.80919 -2.46281,-1.80085 -3.54769,-1.29618 -7.72406,3.59318 -3.58334,4.19508 -5.72299,5.41403 -8.15077,4.64348 -2.17922,-0.69166 -2.90735,-0.42259 -2.15421,0.79605 0.62573,1.01246 0.34532,1.84085 -0.62315,1.84085 -0.96849,0 -1.76088,-0.74823 -1.76088,-1.66274 0,-0.9145 -1.45231,-1.66273 -3.22733,-1.66273 -1.77505,0 -3.65649,-0.69436 -4.18099,-1.54302 -1.1055,-1.78874 4.99157,-4.10746 7.2044,-2.73984 0.81871,0.50599 1.87771,-0.56807 2.35332,-2.38679 1.02405,-3.91598 0.16166,-4.05826 -5.78697,-0.95476 -7.13489,3.72239 -21.30348,2.02756 -21.30348,-2.54827 0,-0.91451 0.73966,-1.2056 1.64369,-0.64688 0.96701,0.59763 1.20573,-0.12544 0.57984,-1.75648 -0.87931,-2.29153 -0.37135,-2.55601 2.92885,-1.525 2.19598,0.68604 4.44512,1.95002 4.9981,2.80884 0.56446,0.87665 2.15318,0.41374 3.62238,-1.05547 1.43934,-1.43932 3.60572,-2.69354 4.81416,-2.78715 1.20845,-0.0937 -0.31238,-0.76327 -3.37963,-1.48811 -3.06723,-0.72485 -8.41054,-1.04494 -11.87402,-0.71134 -5.24494,0.50517 -6.44767,0.0312 -7.19749,-2.83606 -0.49515,-1.89343 -1.69884,-2.94903 -2.6749,-2.34579 -0.97606,0.60324 -1.77466,0.28679 -1.77466,-0.70324 0,-1.06726 2.34465,-1.54164 5.75963,-1.1653 3.26859,0.3602 6.02426,-0.15907 6.37146,-1.20085 0.33652,-1.00954 2.04703,-1.83873 3.80112,-1.84259 2.08378,-0.006 3.38183,-1.3678 3.74478,-3.93276 0.3559,-2.51513 -0.0968,-3.52258 -1.25982,-2.80378 -0.99843,0.61706 -2.98537,-0.0482 -4.41543,-1.47819 -1.43006,-1.43006 -4.03679,-2.60011 -5.79272,-2.60011 -1.75596,0 -4.12718,-1.49647 -5.26941,-3.32548 -1.14224,-1.82901 -3.36433,-3.32545 -4.93798,-3.32545 -2.47082,0 -2.84438,-1.75794 -2.73825,-12.88621 0.0674,-7.08741 0.87848,-13.8215 1.80197,-14.96463 3.00815,-3.72353 -1.61748,-2.32376 -6.12473,1.8534 -4.23213,3.92219 -5.73204,9.37007 -2.57977,9.37007 0.9145,0 1.66273,0.74824 1.66273,1.66274 0,0.91451 -1.54061,1.66274 -3.42361,1.66274 -1.88297,0 -2.96117,0.74823 -2.39596,1.66273 1.47183,2.38147 -1.32774,2.05086 -4.92845,-0.58205 -2.43375,-1.7796 -2.85638,-3.56062 -2.03944,-8.59483 1.14398,-7.04945 3.73187,-9.52752 8.42317,-8.06577 2.03218,0.63323 2.72179,0.3305 1.98028,-0.86931 -0.62574,-1.01248 -0.53239,-1.89582 0.20745,-1.96297 0.73987,-0.0673 4.09231,-0.3608 7.44991,-0.65255 3.35759,-0.29176 6.84416,-0.98747 7.74795,-1.54604 3.01105,-1.86093 6.93154,0.96293 6.93154,4.99268 0,4.29084 4.03707,5.53041 5.51007,1.69184 1.34137,-3.49557 -5.79244,-12.34429 -10.48773,-13.00884 -5.99839,-0.849 -9.98697,0.2451 -9.98697,2.7395 0,2.42505 -7.85658,3.00209 -9.29028,0.68233 -0.50375,-0.81511 -1.42539,-1.17424 -2.04808,-0.79804 -0.62268,0.37617 -2.06001,-0.3203 -3.19403,-1.54773 -1.29787,-1.40477 -1.4519,-2.60865 -0.41568,-3.24908 0.90539,-0.55956 1.64618,-0.225 1.64618,0.74347 0,0.96849 1.30941,1.74942 2.90979,1.73541 2.14011,-0.0188 2.34512,-0.38375 0.77506,-1.37997 -1.17412,-0.745 -1.68428,-2.52844 -1.13371,-3.96321 0.55058,-1.43476 0.2018,-3.10261 -0.77506,-3.70635 -2.58105,-1.59518 -2.17488,-3.67265 0.71803,-3.67265 1.37175,0 2.4941,0.62352 2.4941,1.38561 0,0.76209 1.17277,1.38561 2.60615,1.38561 1.86896,0 2.30075,0.96225 1.52649,3.40172 l -1.07967,3.40174 6.34689,-3.40174 c 6.55384,-3.51264 13.1392,-4.57838 11.45536,-1.85387 -0.52616,0.85132 -0.19618,2.01782 0.73323,2.59224 1.00664,0.62214 1.68986,-1.0517 1.68986,-4.14009 0,-3.19073 0.67001,-4.77037 1.74229,-4.10768 0.95827,0.59225 1.62034,2.31993 1.47128,3.8393 -0.14909,1.51937 -0.17348,3.88484 -0.0539,5.25659 0.192,2.2076 0.39706,2.20919 1.78496,0.0129 1.27612,-2.01849 1.96526,-2.08299 3.70181,-0.34644 1.73652,1.73652 1.69941,2.40219 -0.19935,3.57567 -1.84044,1.13746 -1.14483,2.52723 3.29425,6.58171 3.09504,2.82689 4.71235,5.13979 3.59405,5.13979 -1.1183,0 -2.03329,1.12235 -2.03329,2.49411 0,1.37175 -0.72477,2.4941 -1.61056,2.4941 -0.8858,0 -1.21759,1.02401 -0.73734,2.27559 1.48967,3.88197 -14.7624,7.27761 -18.89219,3.94722 -3.6993,-2.98323 -4.12422,0.006 -0.51405,3.61505 1.90515,1.90581 3.46396,4.21286 3.46396,5.12736 0,0.91451 1.12235,1.66274 2.49411,1.66274 1.37176,0 2.4941,0.69484 2.4941,1.54409 0,0.84925 3.29802,1.32361 7.32896,1.05415 8.73524,-0.58397 10.43845,0.26469 11.20919,5.58519 0.81385,5.61802 4.74016,6.54095 4.74016,1.11426 0,-2.48055 1.39874,-5.15482 3.32548,-6.35809 3.9364,-2.45831 4.32369,-4.60234 0.83137,-4.60234 -3.61993,0 -3.06171,-3.48837 0.7163,-4.47634 1.9089,-0.4992 2.8479,-1.78427 2.31621,-3.16983 -0.62271,-1.62277 0.39204,-2.33025 3.3424,-2.33025 2.33014,0 4.69904,-0.74823 5.26424,-1.66273 0.5652,-0.91451 -0.39702,-1.66274 -2.13828,-1.66274 -1.74123,0 -4.59126,-1.6085 -6.33338,-3.57446 -3.16426,-3.57078 -3.16284,-3.57329 1.40503,-2.4624 2.55851,0.62221 4.57253,0.41662 4.57253,-0.46677 0,-0.86832 -1.68352,-1.81787 -3.74116,-2.11009 -2.28284,-0.32423 -3.74683,-1.6927 -3.7557,-3.51075 -0.009,-1.63869 -0.94436,-3.55408 -2.08078,-4.25644 -1.55396,-0.9604 -1.25334,-2.14961 1.21248,-4.79639 1.91431,-2.05475 2.53137,-3.76848 1.48281,-4.118 -1.07717,-0.35906 -0.72478,-1.48767 0.88044,-2.81991 2.34437,-1.94565 2.67643,-1.68024 2.67643,2.1392 0,2.39824 0.74824,4.36043 1.66274,4.36043 0.91451,0 1.70586,-0.56117 1.75855,-1.24705 0.0526,-0.68588 0.39425,-4.08889 0.75904,-7.56225 0.4683,-4.45906 -0.0486,-6.58834 -1.75853,-7.24451 -1.33198,-0.51114 -2.4218,-1.67757 -2.4218,-2.59208 0,-0.9145 1.12235,-1.23205 2.49411,-0.70564 1.51926,0.58299 2.4941,0.004 2.4941,-1.48485 0,-1.47421 1.59344,-2.44193 4.02085,-2.44193 2.21148,0 5.01735,-0.37441 6.23526,-0.83201 1.23083,-0.46246 2.99919,0.86861 3.98126,2.99671 1.48741,3.22327 1.15638,4.28921 -2.09337,6.74049 -2.12311,1.60148 -4.55,2.48544 -5.3931,1.96436 -3.06518,-1.89437 -3.52794,2.50225 -0.66314,6.30022 2.81919,3.73748 3.1958,3.7973 9.15847,1.45512 5.70599,-2.24139 6.19033,-2.93802 5.87816,-8.455 -0.29074,-5.13854 0.21859,-6.0916 3.5047,-6.55761 3.31634,-0.47031 3.69818,-1.21323 2.77769,-5.40426 -0.80841,-3.68053 -0.46389,-4.85896 1.42044,-4.85896 1.36821,0 2.8217,-0.93529 3.22994,-2.07842 0.94109,-2.63502 2.11476,-1.49504 3.67444,3.56891 1.06838,3.46884 0.77604,3.86659 -2.25872,3.07298 -2.99957,-0.78441 -3.24981,-0.47039 -1.79353,2.25068 2.21532,4.13936 8.29031,4.10814 9.3772,-0.0482 0.46176,-1.76573 1.88819,-3.61283 3.16982,-4.10465 1.28164,-0.4918 2.33026,-1.95998 2.33026,-3.2626 0,-2.40207 4.77175,-5.15761 6.29451,-3.63486 0.45666,0.45668 -0.2116,2.11013 -1.48505,3.67436 -2.00051,2.4573 -1.58056,2.41403 3.08853,-0.31833 3.68476,-2.15631 5.4039,-4.41478 5.4039,-7.09925 0,-2.42638 0.79745,-3.65969 2.07842,-3.21437 1.14313,0.39738 2.01775,2.342 1.94361,4.32138 l -0.13487,3.59885 4.27724,-3.76714 c 2.35248,-2.07191 4.77697,-4.44959 5.38775,-5.28373 0.61078,-0.83412 1.3655,0.11805 1.67715,2.11591 l 0.56664,3.63247 4.49997,-4.19429 c 2.47497,-2.30688 5.28084,-4.19433 6.23527,-4.19433 1.9946,0 2.34732,2.70607 0.48823,3.74576 -0.68588,0.38359 -0.24224,0.44275 0.98584,0.13154 1.22809,-0.31127 4.03396,-1.01797 6.23526,-1.57046 2.38331,-0.59818 4.00237,-0.27583 4.00237,0.79688 0,1.11479 1.90132,1.42116 4.98821,0.80378 3.87307,-0.77461 4.98821,-0.40528 4.98821,1.65214 0,1.66556 0.92118,2.29625 2.4801,1.69804 1.41601,-0.54337 2.91912,0.19241 3.50337,1.71493 0.5628,1.46664 1.98446,2.66662 3.15922,2.66662 1.17478,0 2.62147,1.93433 3.21482,4.29854 0.59338,2.36419 2.46571,5.78716 4.16074,7.60654 2.67272,2.86883 3.54679,3.01767 6.5837,1.12107 4.46098,-2.78593 5.19829,-16.35162 0.88873,-16.35162 -1.87177,0 -2.46142,-1.29722 -2.07842,-4.57253 0.44885,-3.8385 -0.0331,-4.49458 -3.00177,-4.08701 -3.70946,0.50928 -6.46394,-3.5759 -4.52571,-6.71206 0.61966,-1.00263 0.31147,-1.28616 -0.71108,-0.65419 -0.99262,0.61346 -2.3241,0.27507 -2.95886,-0.75198 -0.82095,-1.32833 -1.54826,-1.22962 -2.51956,0.34197 -1.07585,1.74077 -1.59845,1.6021 -2.46414,-0.65387 -0.60426,-1.57477 -2.23259,-2.86321 -3.61848,-2.86321 -2.0513,0 -2.13496,-0.46372 -0.44988,-2.4941 1.89029,-2.27768 1.17435,-3.20461 -2.07843,-2.69101 -0.68587,0.10826 -1.24705,-0.55133 -1.24705,-1.46584 0,-0.9145 -1.3094,-1.65128 -2.90979,-1.63727 -2.44182,0.0214 -2.51616,0.2744 -0.46229,1.5733 2.10646,1.33213 2.05961,1.69667 -0.33606,2.61598 -1.53096,0.58748 -3.75468,0.46045 -4.9416,-0.2823 -1.18693,-0.74274 -3.28039,-1.37022 -4.65215,-1.39439 -1.60921,-0.0285 -2.56211,-1.81375 -2.6858,-5.03216 -0.29235,-7.60703 -0.85919,-8.71942 -2.11823,-4.15684 -0.82758,2.99912 -2.48297,4.31116 -5.94368,4.71094 -3.23906,0.37417 -4.09341,0.9887 -2.63102,1.89253 1.19109,0.73611 1.62904,2.20663 0.9732,3.26777 -0.82435,1.33385 -1.82616,1.40345 -3.24551,0.22547 -1.40768,-1.16824 -2.61528,-1.14171 -3.84144,0.0844 -2.25301,2.25301 -8.77404,0.30805 -8.77404,-2.61696 0,-1.20347 -1.49646,-2.57944 -3.32547,-3.05776 -4.32556,-1.13115 -4.26518,1.11457 0.10807,4.02013 2.29951,1.52778 3.06452,3.2423 2.31623,5.19103 -1.28574,3.34827 -6.72944,3.91582 -7.97406,0.83137 -0.46126,-1.14313 -0.89773,-0.0207 -0.96991,2.4941 -0.14059,4.89996 -1.62881,5.73535 -4.71648,2.64771 -1.45792,-1.45793 -2.54173,-1.41281 -4.4682,0.18602 -1.39888,1.16096 -3.84136,1.61276 -5.42778,1.004 -2.46789,-0.94702 -2.53098,-1.33032 -0.43684,-2.65465 1.9753,-1.2492 1.78987,-1.55276 -0.96111,-1.5733 -1.87474,-0.0129 -4.30649,0.87242 -5.4039,1.96982 -1.55188,1.55187 -2.00703,1.09002 -2.04816,-2.07842 -0.0624,-4.81754 -3.52566,-9.88288 -6.78137,-9.91874 -1.84998,-0.0205 -1.81344,-0.34688 0.18327,-1.63728 1.96943,-1.27275 1.60215,-1.61718 -1.74588,-1.63728 -6.58488,-0.0395 -8.81472,-3.28558 -4.7053,-6.84966 2.79074,-2.42039 4.1488,-2.61476 7.52405,-1.0769 3.24913,1.48039 3.90759,2.71741 3.11896,5.85952 -0.63905,2.54617 -0.3758,3.59741 0.72974,2.91413 0.95114,-0.58783 1.75211,-0.0892 1.77994,1.10774 0.0307,1.32701 0.7197,1.02716 1.76492,-0.76821 0.94292,-1.61961 2.22954,-2.62634 2.85922,-2.23719 0.62968,0.38916 1.14487,-0.99631 1.14487,-3.0788 0,-2.11036 -0.82387,-3.47022 -1.86125,-3.07214 -1.50718,0.57832 -8.94654,-10.77993 -8.94654,-13.65938 0,-2.24337 4.86292,-0.35343 5.47961,2.12961 0.39746,1.60039 0.46251,0.82367 0.14447,-1.72601 -0.35706,-2.86318 0.30714,-4.97552 1.737,-5.52422 1.27333,-0.48861 2.77674,-2.72752 3.3409,-4.97535 0.7116,-2.83524 2.53167,-4.38815 5.94264,-5.07035 6.46265,-1.29254 4.96176,-3.57071 -1.70753,-2.59186 -3.18171,0.46696 -6.51923,2.59325 -8.69959,5.54235 -4.1333,5.59058 -11.2258,6.64385 -11.2258,1.66708 0,-2.1638 1.65335,-3.48316 5.40389,-4.31229 2.97215,-0.65706 4.4956,-1.55219 3.38545,-1.98915 -1.57672,-0.62061 -1.58016,-1.49635 -0.0148,-4.0014 1.1015,-1.76379 2.61515,-3.2069 3.36362,-3.2069 0.74851,0 0.98068,0.61521 0.51597,1.36714 -0.46472,0.75193 3.22583,1.23815 8.20124,1.0805 13.70939,-0.43445 19.64878,5.42614 12.97395,12.80174 -2.5843,2.85562 -2.53564,3.04072 0.79968,3.04072 2.40156,0 3.88931,-1.34593 4.59481,-4.15684 0.57381,-2.28626 1.71042,-4.15684 2.52578,-4.15684 2.77918,0 1.49224,-5.90353 -1.92472,-8.82922 -1.87396,-1.60454 -5.88245,-3.01039 -8.90778,-3.12412 -5.3854,-0.20248 -10.9441,-5.35469 -8.35679,-7.74573 0.64581,-0.59683 1.50823,-0.14983 1.91651,0.99329 1.03712,2.90398 3.79063,2.60203 3.79063,-0.41569 0,-3.12949 2.32094,-3.21385 4.84213,-0.17606 1.17114,1.41114 4.55605,2.18369 8.6515,1.97459 6.22617,-0.31788 6.67226,-0.0538 5.98461,3.54342 -0.40866,2.1378 0.0922,4.42922 1.11283,5.09204 1.02074,0.66282 2.85777,2.48438 4.08232,4.04795 1.95488,2.49608 1.81813,2.76417 -1.12115,2.19814 -2.7636,-0.53223 -3.5398,0.49311 -4.44952,5.87781 -1.15745,6.85084 -4.06301,10.54212 -4.24349,5.39103 -0.0848,-2.42233 -0.39815,-2.27957 -1.60914,0.73323 -0.82708,2.05764 -2.46318,3.80351 -3.63577,3.87972 -1.1726,0.0761 -3.82642,0.32608 -5.89736,0.55528 -4.49473,0.49736 -10.36859,-3.2462 -10.36859,-6.6077 0,-1.31991 -0.74823,-2.39982 -1.66273,-2.39982 -0.91451,0 -1.66274,3.40596 -1.66274,7.56881 0,6.91486 0.43098,7.71905 4.98821,9.3077 2.74352,0.95641 4.98821,2.78806 4.98821,4.07036 0,1.52708 1.86437,2.32266 5.40389,2.30598 4.10068,-0.0192 4.80241,-0.41417 2.90979,-1.63728 -1.37176,-0.8865 -2.11999,-1.67482 -1.66273,-1.75184 0.45725,-0.077 2.99368,-0.4227 5.63651,-0.7682 6.98643,-0.91333 9.67921,-2.21767 8.50401,-4.11917 -0.56918,-0.92096 0.13154,-1.67447 1.55733,-1.67447 1.42575,0 2.59225,-1.12235 2.59225,-2.49411 0,-3.45418 2.91309,-3.139 3.84203,0.41569 0.57224,2.18967 0.80816,1.98392 0.9533,-0.83137 0.19251,-3.73399 3.51835,-5.45817 3.51835,-1.824 0,1.05443 1.39716,0.3062 3.10483,-1.66274 3.2018,-3.6917 10.19706,-4.93958 10.19706,-1.81902 0,0.96847 0.68546,1.33723 1.5232,0.81946 0.83778,-0.51776 3.43009,-0.21638 5.76072,0.66973 2.92761,1.11305 4.5921,1.03732 5.38466,-0.24503 0.69672,-1.12732 0.39338,-1.39026 -0.77251,-0.6697 -1.21363,0.75006 -1.91965,-0.0726 -1.91965,-2.23719 0,-3.56266 2.65393,-3.90193 6.05428,-0.77397 2.30559,2.12086 2.16814,7.61439 -0.2347,9.37974 -0.93895,0.68983 -0.39612,1.23268 1.24705,1.24705 2.90013,0.0255 3.55828,-1.52098 2.99675,-7.04117 -0.16276,-1.60039 0.49927,-2.90979 1.47126,-2.90979 0.97199,0 1.77871,0.93529 1.79271,2.07842 0.0185,1.43588 0.40312,1.51364 1.24705,0.2515 0.67188,-1.00481 2.6457,-1.8154 4.38627,-1.8013 2.95496,0.024 2.92743,0.21773 -0.41569,2.92481 -1.9692,1.59454 -3.58035,4.58749 -3.58035,6.65094 0,2.06346 -0.45104,3.3007 -1.00233,2.74943 -0.55129,-0.55129 -2.7695,-0.33048 -4.92935,0.49071 -2.44038,0.92785 -4.30753,0.87737 -4.93214,-0.13339 -0.55281,-0.89449 -1.70165,-1.19585 -2.55297,-0.66971 -0.8513,0.52615 -1.54784,-0.55988 -1.54784,-2.41341 0,-2.7964 -0.63679,-3.13446 -3.74116,-1.98606 -4.04305,1.49563 -5.53198,9.68003 -1.61645,8.88555 1.16857,-0.2371 2.57042,0.7305 3.11521,2.15023 0.88186,2.29811 1.32941,2.27463 4.07939,-0.21406 2.52101,-2.2815 3.55307,-2.41008 5.61414,-0.69957 2.0496,1.70101 2.53525,1.66595 2.57817,-0.18621 0.0406,-1.7484 0.52651,-1.66468 2.07842,0.35804 1.11405,1.45201 2.89225,2.34782 3.95158,1.99065 3.25315,-1.09683 4.59666,3.21346 1.66893,5.35427 -2.51195,1.83679 -2.47992,2.22687 0.39665,4.83014 1.7211,1.55758 5.26824,3.11214 7.88252,3.45459 2.61426,0.34247 4.94028,0.76774 5.16891,0.94506 0.22863,0.17736 1.10156,0.41593 1.93986,0.53025 3.21372,0.43822 3.75662,2.64689 1.26348,5.14004 -2.35346,2.35345 -2.74936,2.32326 -4.2301,-0.32265 -0.89847,-1.60552 -2.14711,-2.40561 -2.77472,-1.778 -1.54281,1.54282 7.5589,9.82518 9.48739,8.6333 3.10526,-1.91915 6.54767,3.05757 5.47937,7.92155 -0.79804,3.63345 -0.43145,4.72328 1.58882,4.72328 1.44441,0 2.62621,1.12235 2.62621,2.49411 0,3.42446 -4.45789,3.14647 -6.44362,-0.40185 -0.89135,-1.59277 -2.23677,-2.27981 -2.98978,-1.52678 -0.75304,0.75304 -0.0608,2.32574 1.53801,3.49492 1.59896,1.16919 2.90718,2.89747 2.90718,3.84063 0,0.9432 1.98736,2.21368 4.41632,2.82329 4.16911,1.04638 4.25619,1.26593 1.55548,3.92142 -2.69009,2.64506 -3.05295,2.57866 -6.07906,-1.11237 l -3.21821,-3.92528 0,4.45981 c 0,2.45289 1.12235,5.58216 2.49411,6.95391 3.39057,3.3906 3.14466,6.14003 -0.46479,5.19615 -3.30554,-0.86442 -7.01753,2.29856 -7.01753,5.97962 0,1.51054 -1.12826,2.11358 -3.02594,1.61733 -1.66427,-0.43521 -3.99458,0.37583 -5.17846,1.80233 -1.38874,1.67332 -3.55999,2.24039 -6.11911,1.59809 -2.30117,-0.57758 -3.96659,-0.2597 -3.96659,0.75705 0,1.79625 -17.01286,1.25629 -20.07656,-0.6372 -2.01047,-1.24253 -8.18996,0.68507 -8.18996,2.5547 0,0.78254 2.32665,3.74946 5.17035,6.59316 3.55135,3.55135 6.15462,4.85794 8.31368,4.17269 1.72883,-0.5487 3.14333,-0.22247 3.14333,0.72496 0,0.94742 1.12235,1.2919 2.49411,0.76552 1.37176,-0.5264 2.4941,-0.14318 2.4941,0.85173 0,1.18723 2.57124,1.45639 7.48232,0.78326 6.8606,-0.94035 7.48231,-0.7293 7.48231,2.53999 0,3.14936 0.3882,3.32315 3.32548,1.4888 1.82901,-1.14225 3.32547,-2.86953 3.32547,-3.83841 0,-0.96888 2.57066,-1.76158 5.71261,-1.76158 4.33654,0 5.94524,0.82108 6.67827,3.40861 0.90778,3.20434 1.09957,3.23423 3.20006,0.49882 1.22891,-1.60038 3.08721,-2.90979 4.12952,-2.90979 1.04231,0 1.89511,-0.74823 1.89511,-1.66273 0,-0.91451 -0.79238,-1.66274 -1.76087,-1.66274 -0.96847,0 -1.2669,-0.79924 -0.66317,-1.77608 0.60373,-0.97686 1.98863,-1.43422 3.07757,-1.01635 1.08895,0.41786 3.34582,-0.23903 5.01528,-1.45978 2.55204,-1.86609 3.64015,-1.82326 6.83329,0.26896 3.59604,2.35621 3.93241,2.21887 6.32827,-2.58371 1.39167,-2.7897 1.83944,-5.07219 0.99503,-5.07219 -3.99886,0 -0.9145,-4.86033 3.732,-5.88086 4.35422,-0.95637 4.78655,-1.42593 2.4941,-2.70886 -1.5255,-0.85295 -2.77344,-2.29635 -2.77344,-3.20688 0,-2.20529 13.88952,-0.57315 14.6546,1.72206 0.70768,2.12303 10.28644,2.38728 10.28644,0.28377 0,-0.81273 -2.60972,-1.96726 -5.79936,-2.56566 -6.16055,-1.15573 -9.81297,-5.63593 -8.14279,-9.98831 0.74017,-1.92893 0.28811,-2.35619 -1.68988,-1.59715 -3.75499,1.4409 -8.61894,-2.62449 -5.64656,-4.71952 1.70325,-1.20049 1.71981,-1.69785 0.0787,-2.36374 -1.14313,-0.46387 -2.07842,-1.59638 -2.07842,-2.5167 0,-1.96124 6.72703,-7.86508 9.14505,-8.02596 2.55694,-0.17015 9.74477,-6.60548 8.62667,-7.72357 -1.8539,-1.8539 -9.45804,1.12655 -9.45804,3.70709 0,3.69077 -14.71915,2.379 -16.89303,-1.50552 -1.10893,-1.98156 -0.9352,-2.79907 0.59873,-2.81714 1.67628,-0.0198 1.64704,-0.35104 -0.13043,-1.47684 -1.26028,-0.79826 -1.80146,-2.24414 -1.20264,-3.21309 0.66859,-1.08178 -0.21181,-1.51124 -2.28107,-1.11274 -1.85343,0.35695 -3.36988,-0.14115 -3.36988,-1.10701 0,-1.00529 2.13247,-1.443 4.9882,-1.02386 2.74352,0.40266 4.98821,0.29611 4.98821,-0.23676 0,-0.53287 -2.24469,-1.96247 -4.98821,-3.17688 -2.74351,-1.21439 -4.9882,-3.26763 -4.9882,-4.56273 0,-3.12981 2.79696,-3.00388 4.59375,0.20684 0.91855,1.64135 2.51437,2.14684 4.44215,1.40709 2.7672,-1.06188 2.69215,-1.41065 -0.93524,-4.34717 -2.67078,-2.1621 -3.27293,-3.46611 -1.8654,-4.03975 2.94941,-1.20205 2.59435,-4.44919 -0.36242,-3.31456 -1.34248,0.51514 -2.95016,0.11252 -3.57261,-0.89455 -0.75696,-1.22477 0.32319,-1.55307 3.26167,-0.99134 2.59158,0.4954 5.15691,-0.0802 6.25509,-1.40337 1.02393,-1.23375 2.52516,-1.83317 3.33604,-1.332 2.7313,1.68803 1.50252,5.79987 -2.13542,7.14563 -2.39188,0.8848 -2.95285,1.74131 -1.66273,2.53867 1.07084,0.6618 1.94701,0.69341 1.94701,0.0702 0,-0.62319 1.12234,-0.20163 2.4941,0.93682 2.16145,1.79384 2.49411,0.94084 2.49411,-6.39516 0,-6.56936 0.52088,-8.26522 2.32593,-7.57254 1.27925,0.49087 2.81985,0.0933 3.42359,-0.88356 2.21297,-3.58067 4.11608,-1.63765 3.14612,3.21211 -0.80299,4.01493 -0.43261,4.98821 1.89823,4.98821 1.9895,0 2.64638,0.95409 2.09873,3.04835 -0.95249,3.64226 3.04099,4.15741 7.6668,0.98903 1.70538,-1.16807 4.13713,-1.72605 5.4039,-1.23994 1.37364,0.52711 2.30322,-0.19461 2.30322,-1.78818 0,-1.4696 1.12236,-2.672 2.49412,-2.672 1.38561,0 2.49411,-1.47799 2.49411,-3.32547 0,-2.61414 1.10849,-3.32547 5.18214,-3.32547 4.27635,0 5.03744,0.55334 4.35426,3.16573 -0.64743,2.47584 0.21619,3.31896 3.96293,3.86888 2.83299,0.41577 4.79077,-0.0539 4.79077,-1.14917 0,-2.712 6.67564,-2.76756 7.71303,-0.0641 0.66121,1.72305 1.92136,1.90799 5.0072,0.73474 5.33653,-2.02892 6.01849,-1.97612 4.5781,0.3545 -0.84794,1.37198 0.29553,1.62558 3.99425,0.88583 2.85024,-0.57006 5.59396,-0.37029 6.09716,0.4439 0.50322,0.81418 3.15101,1.97147 5.88405,2.57175 3.41327,0.74967 4.96915,2.09128 4.96915,4.28478 0,1.75633 0.74823,3.19334 1.66273,3.19334 0.91451,0 1.66274,1.12235 1.66274,2.49411 0,1.37175 -0.74823,2.4941 -1.66274,2.4941 -0.9145,0 -1.66273,1.12235 -1.66273,2.4941 0,3.02546 3.94576,3.28814 6.24385,0.41569 3.4421,-4.30239 3.94067,-9.63185 1.381,-14.76281 -1.42079,-2.84805 -2.23611,-5.73999 -1.8118,-6.42653 0.66417,-1.07463 -8.21179,-2.95469 -17.90905,-3.79339 -1.66439,-0.14392 -2.5933,-1.18728 -2.13062,-2.39305 0.4512,-1.17573 -0.27852,-2.13774 -1.62155,-2.13774 -1.49624,0 -2.44193,-1.60984 -2.44193,-4.15684 0,-2.547 0.94569,-4.15684 2.44193,-4.15684 1.567,0 2.11287,-1.04256 1.52354,-2.90979 -0.70272,-2.22655 -0.14779,-2.04116 2.36331,0.78958 l 3.28163,3.69937 1.01434,-3.69937 c 0.83418,-3.04237 1.29446,-3.26353 2.59171,-1.24528 1.292,2.01008 1.87461,1.70927 3.22011,-1.66274 1.51171,-3.78843 1.65114,-3.83464 1.74813,-0.57926 0.058,1.94566 -1.04187,4.48972 -2.44408,5.65345 -2.95869,2.4555 -2.48523,5.30685 0.97688,5.88338 1.32217,0.22016 3.63768,0.89773 5.14558,1.50566 1.50788,0.60797 3.22608,0.32146 3.81823,-0.63664 0.97956,-1.58494 2.219,-1.21243 9.05741,2.72219 0.35895,0.20653 -0.29384,1.51594 -1.45065,2.90979 -1.33246,1.60552 -1.44957,2.53429 -0.31956,2.53429 0.98104,0 2.61255,-1.30941 3.62558,-2.90979 1.319,-2.08376 2.0898,-2.31978 2.71527,-0.83137 0.48038,1.14313 1.93343,2.07842 3.22898,2.07842 1.29555,0 2.35554,0.66818 2.35554,1.48484 0,2.39822 -5.44589,3.79043 -6.72584,1.71944 -0.77772,-1.25838 -1.527,-1.32245 -2.22665,-0.19037 -0.57998,0.93842 0.0746,2.83543 1.4549,4.21558 3.29617,3.29619 3.17147,5.44636 -0.40041,6.90434 -2.66865,1.0893 -2.6342,1.29557 0.41569,2.48888 3.11149,1.21742 3.0404,1.41379 -1.10478,3.05175 -2.43663,0.96284 -4.96122,3.477 -5.6102,5.58703 -1.78645,5.80826 -6.70248,9.65598 -12.33697,9.65598 -2.78174,0 -5.05773,0.8642 -5.05773,1.92044 0,1.14902 -1.22141,0.81507 -3.04072,-0.83137 -1.6724,-1.5135 -3.91708,-2.75181 -4.98821,-2.75181 -1.07112,0 -1.94749,-0.74823 -1.94749,-1.66274 0,-0.9145 -1.12235,-1.66273 -2.49411,-1.66273 -4.0483,0 -2.86349,4.7392 2.49411,9.97642 2.74351,2.68188 4.98821,4.03716 4.98821,3.01173 0,-1.02543 1.4686,-0.53535 3.26354,1.08906 1.79495,1.62442 4.41292,2.51241 5.81773,1.97333 1.40479,-0.53906 4.1927,-0.374 6.19534,0.36684 3.89367,1.44033 12.98991,-1.13911 12.98991,-3.68361 0,-0.82601 1.12235,-0.57034 2.4941,0.56812 2.12023,1.75962 2.49411,1.34148 2.49411,-2.78933 0,-5.75448 2.67242,-8.94414 6.43787,-7.68393 1.48895,0.4983 0.93249,-0.41469 -1.23657,-2.02887 -3.40715,-2.53555 -3.58623,-3.135 -1.31613,-4.40541 1.57574,-0.88184 2.20693,-2.56693 1.57668,-4.20931 -0.79134,-2.06221 -0.36353,-2.475 1.73179,-1.67094 1.76075,0.67565 2.78278,0.23781 2.78278,-1.19216 0,-2.75877 11.22286,-4.46147 15.38031,-2.33346 4.54618,2.32696 3.42021,4.32106 -2.07842,3.68083 -5.66735,-0.65986 -7.1751,3.38275 -1.78715,4.79171 2.2413,0.58612 2.93667,0.14817 2.31924,-1.46091 -0.72282,-1.88366 -0.0259,-1.85159 3.86557,0.17791 2.61105,1.36178 6.43091,2.48058 8.48855,2.48623 2.21243,0.007 3.74115,1.0294 3.74115,2.50434 0,1.37176 0.77235,2.49411 1.71632,2.49411 0.94399,0 2.31722,1.6244 3.05166,3.60974 0.80687,2.18116 1.77877,2.89228 2.4558,1.79679 0.61627,-0.99712 -0.009,-2.94219 -1.38892,-4.32235 -3.99585,-3.99587 -3.11345,-7.73513 1.82535,-7.73513 3.07126,0 4.06937,0.69153 3.42432,2.37254 -0.50075,1.30488 0.13061,3.23661 1.4032,4.29267 1.92066,1.59401 1.47052,2.74433 -2.65027,6.77253 -5.23068,5.11315 -9.5644,6.00538 -15.011,3.09044 -3.00915,-1.61046 -3.11108,-1.4719 -1.18552,1.61143 3.51179,5.62326 10.6192,6.08874 17.13103,1.12192 3.39895,-2.5925 6.06878,-3.6341 6.69942,-2.61367 0.57668,0.93307 1.69333,1.29796 2.48145,0.81088 0.78812,-0.48709 1.90293,-0.12526 2.47735,0.80424 0.5744,0.92942 -0.0987,1.68986 -1.49567,1.68986 -1.48489,0 -2.17177,0.95971 -1.65348,2.31035 0.51259,1.33575 2.24411,1.95536 4.10465,1.46881 4.60127,-1.20325 3.98301,1.98948 -0.80798,4.1724 -2.93972,1.33942 -3.7847,2.75741 -3.13156,5.25511 0.49201,1.88139 0.15057,3.42069 -0.75852,3.42069 -2.92668,0 -5.80426,-4.87089 -4.90627,-8.30481 1.22342,-4.67844 -1.23047,-4.16382 -3.45805,0.72518 -1.82301,4.00107 -9.54738,5.63797 -8.03747,1.70325 0.39126,-1.01967 -2.5499,-2.70762 -6.61002,-3.79354 -5.56025,-1.48715 -7.31497,-2.75572 -7.31497,-5.28831 0,-1.83252 -0.67782,-3.33187 -1.50629,-3.33187 -0.82847,0 -0.64141,-1.86474 0.41568,-4.14387 1.40993,-3.03987 3.22878,-4.14731 6.82705,-4.15684 8.09069,-0.0214 2.64061,-3.05367 -6.98349,-3.88541 -8.86756,-0.76637 -9.45902,-0.36717 -8.81633,5.95086 0.16276,1.60039 -0.68632,2.92124 -1.88695,2.93525 -1.747,0.0205 -1.73237,0.31095 0.0732,1.45502 2.72255,1.72507 1.04086,11.8143 -1.97258,11.83438 -3.01993,0.0201 -6.05302,7.68574 -3.89496,9.84381 1.26802,1.26802 1.20658,2.35818 -0.2129,3.77766 -1.55187,1.55189 -1.99528,1.32709 -1.99528,-1.01163 0,-2.34963 -0.87856,-2.78639 -4.01923,-1.99814 -2.48629,0.62402 -4.33872,0.21715 -4.85694,-1.0668 -0.46075,-1.14154 -0.89677,-0.43619 -0.96897,1.56747 -0.22161,6.14994 -3.45676,6.20396 -3.45676,0.0576 0,-7.10203 -1.23571,-8.34522 -5.3975,-5.43019 -1.81388,1.27048 -4.33438,1.91226 -5.60117,1.42613 -1.26676,-0.48609 -2.30322,-0.007 -2.30322,1.06726 0,1.14749 -1.88325,1.73438 -4.57252,1.42494 -2.72214,-0.3132 -4.57253,-1.53542 -4.57253,-3.02023 0,-1.62822 1.58742,-2.47134 4.57253,-2.42855 2.51488,0.036 4.57252,-0.45868 4.57252,-1.09937 0,-1.87106 -19.89172,-2.47953 -20.55994,-0.62892 -0.3302,0.91451 -1.18353,1.11963 -1.89631,0.45587 -0.71276,-0.66378 -0.34947,-2.3473 0.80733,-3.74116 1.80656,-2.17676 1.38467,-2.53429 -2.9904,-2.53429 -2.80152,0 -5.5561,-0.74823 -6.1213,-1.66273 -0.56521,-0.91451 -0.23524,-1.66274 0.73323,-1.66274 0.96848,0 1.76087,-0.74823 1.76087,-1.66274 0,-0.9145 -1.87058,-1.66273 -4.15684,-1.66273 -4.19887,0 -5.55714,-2.26378 -2.49411,-4.15684 2.51301,-1.55311 1.99226,-4.15684 -0.83136,-4.15684 -1.37176,0 -2.49411,-0.79239 -2.49411,-1.76088 0,-0.96847 0.8284,-1.24888 1.84087,-0.62314 1.2388,0.7656 1.47406,-0.0185 0.71934,-2.39596 -0.66535,-2.09655 -0.39969,-3.53373 0.65329,-3.53373 0.97614,0 1.77478,-1.34615 1.77478,-2.99144 0,-3.151 8.05057,-6.98497 14.667,-6.98497 4.61125,0 4.7105,-2.75625 0.15131,-4.20327 -5.14554,-1.63314 -20.17518,-1.21181 -21.31356,0.59751 -0.54291,0.86283 -3.98004,1.46596 -7.63806,1.34022 -5.99692,-0.20609 -6.59979,0.1393 -6.13073,3.51259 0.39876,2.86774 -0.30349,3.74115 -3.00793,3.74115 -2.24621,0 -3.09646,0.69843 -2.3401,1.92224 1.20824,1.95499 -6.09613,1.36751 -13.46231,-1.08276 -2.45767,-0.81751 -2.07044,-0.0296 1.48398,3.01968 3.18916,2.73592 4.53044,5.19265 3.98133,7.29245 -0.70949,2.7131 -0.0887,3.06143 4.33564,2.43238 5.06637,-0.72035 5.1075,-0.67112 2.18214,2.61188 -2.69726,3.02701 -2.72512,3.44451 -0.29215,4.37812 2.44702,0.93902 2.45348,1.26798 0.0719,3.64968 -1.43969,1.43971 -2.61765,3.1484 -2.61765,3.79708 0,0.64869 -2.24469,2.02671 -4.98822,3.06228 -2.74352,1.03556 -4.98821,3.07017 -4.98821,4.52139 0,3.86324 2.93925,3.22658 7.41885,-1.60696 5.24447,-5.65886 12.31096,-6.18442 17.01229,-1.26521 2.00579,2.09876 4.65134,3.43048 5.87897,2.95941 1.43095,-0.54913 2.23204,0.39688 2.23204,2.63583 0,2.74131 -0.81736,3.33613 -3.80055,2.76587 -2.0903,-0.3996 -3.80054,-0.17773 -3.80054,0.49311 0,0.67082 2.83259,1.67262 6.29464,2.22622 4.87766,0.77997 6.29466,1.76355 6.29466,4.36934 0,3.97414 -1.47263,4.26554 -4.79027,0.94789 -3.92709,-3.92709 -4.46469,-1.0372 -0.56343,3.02861 1.96471,2.04759 4.50748,3.41534 5.65061,3.03943 1.31499,-0.4324 2.07842,0.9499 2.07842,3.76335 0,3.68543 -0.56758,4.26665 -3.31501,3.39464 -2.67472,-0.84892 -3.11086,-0.46913 -2.25806,1.96637 1.01126,2.88791 0.92229,2.89146 -2.05636,0.0818 -2.48636,-2.34525 -2.73498,-3.54253 -1.23456,-5.94506 1.60321,-2.56715 1.35456,-2.9709 -1.69525,-2.75264 -3.6471,0.26102 -6.40564,7.47753 -2.85828,7.47753 2.1104,0 2.43324,14.36364 0.35172,15.65008 -0.78465,0.48495 -2.82237,-1.71001 -4.52826,-4.87767 -1.70591,-3.16766 -3.86978,-5.67632 -4.80863,-5.57479 -4.32663,0.46794 -5.86383,-0.45873 -5.86383,-3.53484 0,-3.39369 -2.53874,-4.16108 -7.48575,-2.26273 -2.15348,0.82638 -2.28874,1.35992 -0.60803,2.39865 2.47333,1.52859 -4.72453,4.85229 -10.50818,4.85229 -2.61681,0 -2.99955,0.50759 -1.62841,2.15972 2.51524,3.03067 1.55625,11.54863 -1.41061,12.52952 -2.1142,0.69898 -2.14103,0.41919 -0.1867,-1.94832 1.48349,-1.79716 1.62896,-2.76451 0.41568,-2.76451 -1.93868,0 -2.34546,1.3178 -2.56641,8.31369 -0.097,3.07046 -1.1702,4.30371 -4.10648,4.71884 -3.06284,0.43302 -3.74266,-0.0442 -2.96198,-2.07842 1.65141,-4.30347 -1.20807,-2.97764 -3.29848,1.52939 -1.0571,2.27913 -1.24416,4.14387 -0.41569,4.14387 0.82847,0 1.50629,1.12235 1.50629,2.4941 0,3.49016 -8.9845,3.24849 -12.57112,-0.33812 -2.66782,-2.66784 -2.76856,-2.63163 -1.73543,0.62352 0.91883,2.89498 0.39453,3.45576 -3.23081,3.45576 -3.08637,0 -3.81495,-0.51268 -2.54018,-1.78744 0.9831,-0.98308 1.78744,-3.047 1.78744,-4.58644 0,-3.44528 6.10527,-5.25864 10.24523,-3.04299 2.56143,1.37083 3.05666,1.00681 3.05666,-2.24693 0,-5.72706 -3.02971,-8.14865 -7.32136,-5.85183 -4.16126,2.22703 -4.34648,2.20852 -6.31923,-0.63245 -1.07769,-1.55195 -1.24677,-1.16253 -0.56167,1.29346 0.84179,3.01768 -0.0665,3.80696 -6.43237,5.58927 -6.70419,1.87706 -15.94557,9.44159 -15.94557,13.05224 0,0.76999 -1.15453,1.4 -2.56566,1.4 -1.42897,0 -2.19621,-0.96274 -1.73179,-2.17299 0.45862,-1.19516 -0.44447,-2.92732 -2.00687,-3.84929 -2.48454,-1.46611 -2.52801,-1.88539 -0.34663,-3.34398 1.37176,-0.91724 4.55174,-1.67916 7.06663,-1.69317 2.77247,-0.0148 4.57253,-0.931 4.57253,-2.32572 0,-2.59208 -8.83985,-4.91707 -9.6993,-2.55101 -0.30483,0.83918 -1.52262,1.5258 -2.70619,1.5258 -1.18358,0 -3.04651,1.07788 -4.13985,2.39526 -2.31122,2.78488 -6.73297,1.64098 -6.73297,-1.74179 0,-2.11696 -3.37231,-3.19711 -7.44866,-2.38578 -0.89599,0.17828 -3.5148,0.65281 -5.81957,1.05438 -2.30478,0.40156 -6.62226,1.17742 -9.5944,1.72411 -4.64859,0.85507 -5.40389,0.52219 -5.40389,-2.38163 0,-1.8566 0.93529,-3.73584 2.07842,-4.1761 1.14313,-0.44025 0.58196,-0.81221 -1.24705,-0.82656 -1.82901,-0.0148 -5.009,-0.55201 -7.06663,-1.19477 -2.05764,-0.64276 -3.74116,-0.49239 -3.74116,0.33415 0,2.11209 -6.36256,2.35958 -7.63725,0.29712 -0.57846,-0.93601 -0.21909,-2.53451 0.79863,-3.55224 3.35522,-3.35521 2.2076,-7.99281 -1.89075,-7.64058 -8.069,0.69349 -10.12479,-0.007 -7.898,-2.68978 1.13846,-1.37175 3.28771,-2.51899 4.77612,-2.54941 2.10466,-0.043 1.83365,-0.78223 -1.21915,-3.32548 -2.15898,-1.79858 -5.05646,-3.27016 -6.43888,-3.27016 -2.07858,0 -2.14447,-0.44465 -0.38076,-2.56978 1.173,-1.41338 3.1352,-2.18507 4.36043,-1.7149 1.22525,0.47014 2.22772,-0.16388 2.22772,-1.40919 0,-1.24521 -1.12235,-2.69471 -2.49411,-3.22111 -1.37176,-0.52639 -2.4941,-1.72878 -2.4941,-2.672 0,-0.9432 1.12234,-1.71491 2.4941,-1.71491 1.42783,0 2.49411,-1.49776 2.49411,-3.50337 0,-2.43099 0.76345,-3.21039 2.4941,-2.54627 1.69647,0.65098 2.49411,-0.0898 2.49411,-2.31621 0,-1.80112 1.12175,-3.2733 2.4941,-3.2733 1.37176,0 2.49411,-0.74824 2.49411,-1.66274 0,-0.91451 1.12234,-1.66274 2.4941,-1.66274 1.37176,0 2.4941,-1.1081 2.4941,-2.46244 0,-3.26894 -7.69771,-5.10691 -10.75653,-2.5683 -1.31985,1.09536 -3.18069,1.50886 -4.13527,0.91891 -0.95455,-0.58996 -1.73556,-0.28025 -1.73556,0.68822 0,0.96849 -2.15744,1.76088 -4.79428,1.76088 -3.39592,0 -5.04794,0.96994 -5.66393,3.32547 -0.63232,2.41799 -2.26797,3.32547 -5.99388,3.32547 -4.30609,0 -5.06104,0.59025 -4.7282,3.69669 0.21786,2.03318 -0.47685,3.7167 -1.54378,3.74114 -1.06692,0.0244 -2.50103,0.60566 -3.18691,1.29154 -0.68588,0.68588 -2.29814,1.24705 -3.58281,1.24705 -2.3017,0 -7.08641,3.84916 -7.08641,5.7008 0,0.52258 1.12234,0.95015 2.4941,0.95015 1.37176,0 2.49411,1.14583 2.49411,2.54627 0,1.40049 -1.12235,2.97699 -2.49411,3.50337 -1.37176,0.52641 -2.4941,1.91934 -2.4941,3.09541 0,2.70257 -4.54672,4.55364 -5.88121,2.39436 -0.54974,-0.88949 -1.64436,-1.21872 -2.43248,-0.73163 -0.78812,0.48709 -1.90292,0.12526 -2.47734,-0.80424 -0.57441,-0.92942 -2.30964,-1.66972 -3.85606,-1.64513 -1.97525,0.0314 -1.08048,1.48469 3.00793,4.88536 4.66593,3.88106 5.40757,5.25657 3.74116,6.93876 -2.86237,2.88951 -2.61072,5.31856 0.43011,4.15169 1.3797,-0.52943 4.55969,-0.15833 7.06663,0.82472 4.42013,1.73321 4.45,1.82893 0.98709,3.1623 -4.40658,1.69671 -6.62524,4.93349 -3.38165,4.93349 3.84633,0 7.02491,4.74968 4.72064,7.05395 -1.45795,1.45795 -1.92482,1.42007 -1.92482,-0.15611 0,-1.14452 -1.68352,-0.35202 -3.74116,1.76113 -2.29214,2.35396 -5.99522,3.97001 -9.56074,4.17233 -11.31527,0.64211 -16.62736,2.2145 -16.62736,4.9217 0,2.17792 1.23179,2.43408 7.06663,1.46954 13.66834,-2.25942 17.87442,-2.43925 17.87442,-0.76412 0,0.92986 0.781,1.208 1.73556,0.61804 0.95458,-0.58996 2.89771,-0.10826 4.31804,1.07062 2.30507,1.91302 2.30981,2.24096 0.0442,3.05293 -1.54712,0.55445 0.82464,2.01932 6.07407,3.75149 5.77659,1.9061 7.6542,2.11951 5.7025,0.64806 -1.60038,-1.20656 -2.90979,-3.42068 -2.90979,-4.92024 0,-2.86061 1.91727,-3.58043 3.99707,-1.50064 0.67422,0.67422 2.45775,1.23539 3.96338,1.24705 1.9332,0.0148 2.82077,1.65165 3.02087,5.57039 0.15575,3.05205 1.19991,6.41909 2.32019,7.48231 1.58575,1.50497 1.80039,1.14812 0.96908,-1.61111 -0.71805,-2.38339 -0.23465,-3.86394 1.47586,-4.52034 1.39901,-0.53684 2.54365,-0.17126 2.54365,0.81234 0,0.98366 1.1148,1.36067 2.47732,0.83782 2.08174,-0.79884 2.36468,0.80559 1.77194,10.04858 -0.42293,6.59524 -1.58125,11.55465 -2.89298,12.38643 -1.75009,1.10976 -1.70541,1.39233 0.22332,1.41269 1.8752,0.0198 1.96758,0.46886 0.41569,2.02075 -1.09741,1.0974 -1.99529,3.3421 -1.99529,4.98821 0,3.52548 8.06699,4.23726 11.30661,0.99764 2.40975,-2.40973 2.67143,-11.30661 0.33255,-11.30661 -0.91451,0 -1.66274,-2.61881 -1.66274,-5.81958 0,-3.91233 0.77199,-5.81958 2.35555,-5.81958 1.29555,0 2.73503,-0.93529 3.1989,-2.07842 0.64972,-1.60129 1.16875,-1.62142 2.26086,-0.0877 0.9434,1.32483 2.23704,1.46387 3.86773,0.41568 2.03668,-1.30915 2.06948,-1.82051 0.1943,-3.02986 -1.6407,-1.05811 -1.7342,-1.77735 -0.34286,-2.63724 1.0522,-0.6503 3.06509,-0.22628 4.47308,0.94223 1.40798,1.16854 3.99365,2.23023 5.74593,2.35933 1.75227,0.12896 3.69285,0.74164 4.31242,1.36119 1.90594,1.90594 -5.05732,6.14568 -9.02286,5.49378 -4.43755,-0.72952 -4.90917,1.85997 -0.87589,4.80919 2.46281,1.80085 3.54769,1.29617 7.72406,-3.59318 3.58334,-4.19508 5.72299,-5.41403 8.15077,-4.64349 2.17922,0.69167 2.90735,0.4226 2.1542,-0.79604 -0.62572,-1.01246 -0.34531,-1.84085 0.62316,-1.84085 0.96849,0 1.76088,0.74823 1.76088,1.66273 0,0.91451 1.4523,1.66274 3.22733,1.66274 1.77505,0 3.65649,0.69436 4.18099,1.54302 1.1055,1.78873 -4.99157,4.10746 -7.2044,2.73984 -0.81871,-0.50599 -1.87773,0.56806 -2.35333,2.38678 -1.02404,3.91599 -0.16165,4.05826 5.78697,0.95476 7.1349,-3.72238 21.30348,-2.02755 21.30348,2.54828 0,0.9145 -0.73966,1.20559 -1.64369,0.64688 -0.96701,-0.59765 -1.20572,0.12544 -0.57983,1.75647 0.87931,2.29153 0.37135,2.55602 -2.92885,1.52501 -2.19598,-0.68604 -4.44513,-1.95002 -4.9981,-2.80884 -0.56446,-0.87665 -2.15319,-0.41375 -3.62238,1.05547 -1.43934,1.43932 -3.60572,2.69354 -4.81416,2.78715 -1.20846,0.0937 0.31237,0.76327 3.37962,1.48811 3.06724,0.72484 8.41055,1.04494 11.87403,0.71134 5.24494,-0.50518 6.44767,-0.0312 7.19749,2.83605 0.49514,1.89344 1.69884,2.94903 2.6749,2.34579 0.97606,-0.60324 1.77466,-0.28678 1.77466,0.70325 0,1.06725 -2.34465,1.54163 -5.75963,1.1653 -3.26859,-0.3602 -6.02426,0.15907 -6.37146,1.20085 -0.33652,1.00954 -2.04703,1.83872 -3.80113,1.84259 -2.08377,0.006 -3.38182,1.3678 -3.74477,3.93276 -0.3559,2.51512 0.0968,3.52258 1.25981,2.80378 0.99844,-0.61706 2.98537,0.0482 4.41544,1.47819 1.43006,1.43006 4.03679,2.60011 5.79273,2.60011 1.75594,0 4.12717,1.49646 5.2694,3.32547 1.14224,1.82901 3.36432,3.32548 4.93797,3.32548 2.47083,0 2.84439,1.75793 2.73825,12.8862 -0.0674,7.08742 -0.87847,13.8215 -1.80196,14.96463 -3.00815,3.72353 1.61747,2.32377 6.12473,-1.85339 4.23212,-3.9222 5.73204,-9.37008 2.57977,-9.37008 -0.9145,0 -1.66274,-0.74823 -1.66274,-1.66274 0,-0.9145 1.54062,-1.66273 3.42362,-1.66273 1.88297,0 2.96116,-0.74823 2.39596,-1.66274 -1.47183,-2.38146 1.32773,-2.05085 4.92843,0.58205 2.43376,1.77961 2.85639,3.56062 2.03945,8.59483 -1.14398,7.04945 -3.73186,9.52752 -8.42316,8.06577 -2.03218,-0.63322 -2.72179,-0.33049 -1.98028,0.86932 0.62574,1.01248 0.53239,1.89581 -0.20746,1.96297 -0.73986,0.0672 -4.0923,0.3608 -7.44991,0.65255 -3.35758,0.29176 -6.84415,0.98746 -7.74794,1.54603 -3.01107,1.86094 -6.93154,-0.96293 -6.93154,-4.99268 0,-4.29084 -4.03707,-5.53041 -5.51005,-1.69183 -1.34139,3.49557 5.79242,12.34428 10.48769,13.00884 5.99841,0.84899 9.98699,-0.24511 9.98699,-2.73951 0,-2.42504 7.85657,-3.00208 9.29028,-0.68233 0.50375,0.81511 1.42539,1.17425 2.04808,0.79804 0.62268,-0.37616 2.06,0.3203 3.19403,1.54773 1.29787,1.40478 1.4519,2.60865 0.41568,3.24908 -0.9054,0.55957 -1.64618,0.22501 -1.64618,-0.74346 0,-0.96849 -1.30941,-1.74942 -2.90979,-1.73542 -2.14011,0.0188 -2.34513,0.38376 -0.77506,1.37998 1.17412,0.745 1.68428,2.52843 1.13371,3.96321 -0.55059,1.43475 -0.2018,3.10261 0.77506,3.70635 2.58104,1.59517 2.17488,3.67265 -0.71803,3.67265 -1.37176,0 -2.4941,-0.62353 -2.4941,-1.38561 0,-0.76209 -1.17277,-1.38562 -2.60616,-1.38562 -1.86895,0 -2.30074,-0.96224 -1.52648,-3.40172 l 1.07967,-3.40173 -6.34689,3.40173 c -6.55384,3.51264 -13.1392,4.57838 -11.45537,1.85388 0.52617,-0.85132 0.19619,-2.01782 -0.73323,-2.59224 -1.00664,-0.62214 -1.68985,1.0517 -1.68985,4.14008 0,3.19074 -0.67001,4.77037 -1.74229,4.10768 -0.95827,-0.59225 -1.62034,-2.31992 -1.47128,-3.83929 0.14909,-1.51938 0.17347,-3.88484 0.0539,-5.2566 -0.19201,-2.20759 -0.39706,-2.20918 -1.78496,-0.0129 -1.27612,2.01849 -1.96527,2.08298 -3.70181,0.34644 -1.73652,-1.73653 -1.69941,-2.40219 0.19934,-3.57568 1.84045,-1.13746 1.14484,-2.52723 -3.29425,-6.5817 -3.09498,-2.82748 -4.71228,-5.14039 -3.59396,-5.14039 1.1183,0 2.03328,-1.12234 2.03328,-2.4941 0,-1.37176 0.72475,-2.49411 1.61057,-2.49411 0.88577,0 1.21758,-1.024 0.73731,-2.27558 -1.48967,-3.88197 14.76242,-7.27761 18.8922,-3.94724 3.69931,2.98322 4.12421,-0.006 0.51406,-3.61503 -1.90522,-1.90522 -3.46404,-4.21227 -3.46404,-5.12678 0,-0.9145 -1.12234,-1.66273 -2.4941,-1.66273 -1.37176,0 -2.49411,-0.69484 -2.49411,-1.54411 0,-0.84923 -3.29802,-1.32359 -7.32895,-1.05414 -8.73524,0.58397 -10.43846,-0.26469 -11.20919,-5.58519 -0.81385,-5.61803 -4.74017,-6.54096 -4.74017,-1.11427 0,2.48056 -1.39873,5.15483 -3.32547,6.3581 -3.9364,2.45832 -4.32371,4.60234 -0.83137,4.60234 3.61993,0 3.06171,3.48837 -0.71631,4.47635 -1.90889,0.49919 -2.84789,1.78426 -2.31621,3.16982 0.62272,1.62278 -0.39203,2.33025 -3.34239,2.33025 -2.33014,0 -4.69904,0.74824 -5.26424,1.66274 -0.56521,0.91451 0.39702,1.66274 2.13828,1.66274 1.74123,0 4.59125,1.61392 6.33338,3.5865 3.14032,3.55576 3.1354,3.57847 -0.57367,2.64977 -2.05763,-0.5152 -3.74115,-0.34581 -3.74115,0.37641 0,0.72222 1.59364,1.72989 3.54142,2.23925 2.33569,0.61079 3.20838,1.79407 2.56317,3.47543 -0.53805,1.40211 0.12285,3.16559 1.46886,3.91881 2.07718,1.16244 1.94849,1.90468 -0.85134,4.90997 -1.92266,2.06371 -2.54936,3.79021 -1.50251,4.13916 1.07718,0.35906 0.72479,1.48767 -0.88043,2.81991 -2.34437,1.94566 -2.67644,1.68023 -2.67644,-2.1392 0,-2.39824 -0.74823,-4.36044 -1.66273,-4.36044 -0.91451,0 -1.70586,0.56118 -1.75855,1.24705 -0.0527,0.68588 -0.39425,4.08889 -0.75904,7.56226 -0.4683,4.45905 0.0486,6.58833 1.75853,7.2445 1.33198,0.51115 2.42179,1.67758 2.42179,2.59208 0,0.91451 -1.12234,1.23205 -2.4941,0.70565 -1.51926,-0.58298 -2.49411,-0.004 -2.49411,1.48484 0,1.47422 -1.59343,2.44193 -4.02084,2.44193 -2.21148,0 -5.01735,0.37441 -6.23527,0.83202 -1.23083,0.46246 -2.99918,-0.86862 -3.98125,-2.99672 -1.48741,-3.22327 -1.15638,-4.28921 2.09336,-6.74049 2.12312,-1.60147 4.55001,-2.48544 5.39311,-1.96436 3.06518,1.89438 3.52794,-2.50225 0.66314,-6.30022 -2.81919,-3.73748 -3.1958,-3.7973 -9.15847,-1.45511 -5.70599,2.24139 -6.19033,2.93802 -5.87816,8.455 0.29074,5.13853 -0.21859,6.0916 -3.5047,6.55761 -3.31634,0.47031 -3.69818,1.21322 -2.77769,5.40426 0.80838,3.68052 0.46388,4.85896 -1.42044,4.85896 -1.36821,0 -2.8217,0.93529 -3.22994,2.07842 -0.94109,2.63501 -2.11476,1.49504 -3.67444,-3.56892 -1.06839,-3.46883 -0.77604,-3.86658 2.25871,-3.07297 2.99958,0.7844 3.24982,0.47038 1.79354,-2.25068 -2.21532,-4.13937 -8.29031,-4.10815 -9.3772,0.0482 -0.46176,1.76573 -1.88819,3.61283 -3.16983,4.10465 -1.28163,0.4918 -2.33025,1.95997 -2.33025,3.2626 0,2.40206 -4.77176,5.1576 -6.29451,3.63485 -0.45666,-0.45668 0.21159,-2.11012 1.48505,-3.67435 2.00051,-2.4573 1.58056,-2.41402 -3.08854,0.31832 -3.68475,2.15631 -5.40389,4.41479 -5.40389,7.09926 0,2.42637 -0.79745,3.65968 -2.07842,3.21436 -1.14313,-0.39737 -2.01775,-2.342 -1.94361,-4.32138 l 0.13487,-3.59884 -4.27725,3.76713 c -2.35247,2.07192 -4.77696,4.4496 -5.38774,5.28374 -0.61078,0.83412 -1.3655,-0.11806 -1.67715,-2.11591 l -0.56664,-3.63247 -4.49998,4.19429 c -2.47496,2.30688 -5.28083,4.19433 -6.23526,4.19433 -1.9946,0 -2.34732,-2.70607 -0.48823,-3.74576 0.68588,-0.38358 0.24224,-0.44275 -0.98584,-0.13154 -1.2281,0.31126 -4.03396,1.01796 -6.23526,1.57047 -2.38331,0.59816 -4.00237,0.27581 -4.00237,-0.79689 0,-1.11479 -1.90133,-1.42116 -4.98821,-0.80379 -3.87307,0.77463 -4.98821,0.40528 -4.98821,-1.65213 0,-1.66556 -0.92118,-2.29626 -2.4801,-1.69804 -1.41601,0.54336 -2.91912,-0.19242 -3.50337,-1.71493 -0.56284,-1.46661 -1.9845,-2.66659 -3.15926,-2.66659 -1.17478,0 -2.62145,-1.93435 -3.21482,-4.29854 -0.59338,-2.36419 -2.46571,-5.78715 -4.16074,-7.60656 -2.67272,-2.86881 -3.54677,-3.01764 -6.5837,-1.12105 -4.46098,2.78593 -5.19827,16.35163 -0.88873,16.35163 1.87178,0 2.46142,1.29719 2.07842,4.57252 -0.44885,3.8385 0.0331,4.49458 3.00177,4.08701 3.70948,-0.50928 6.46396,3.5759 4.52573,6.71206 -0.61968,1.00261 -0.31149,1.28616 0.71106,0.65419 0.99262,-0.61345 2.32412,-0.27509 2.95886,0.75197 0.82097,1.32834 1.54827,1.22961 2.51956,-0.34195 1.07587,-1.7408 1.59846,-1.60212 2.46414,0.65386 0.60429,1.57474 2.23263,2.86317 3.61852,2.86317 2.0513,0 2.13496,0.46372 0.44988,2.49411 -1.89027,2.27767 -1.17435,3.20461 2.07842,2.69101 0.68588,-0.10826 1.24706,0.55133 1.24706,1.46583 0,0.91451 1.3094,1.65128 2.90978,1.63728 2.44183,-0.0214 2.51617,-0.27441 0.4623,-1.5733 -2.10646,-1.33213 -2.05961,-1.69668 0.33606,-2.61598 1.53095,-0.58749 3.75468,-0.46045 4.9416,0.28229 1.18693,0.74275 3.28039,1.37023 4.65215,1.39439 1.60921,0.0283 2.56211,1.81375 2.6858,5.03216 0.29234,7.60704 0.85919,8.71943 2.11823,4.15684 0.82758,-2.99911 2.48297,-4.31116 5.94368,-4.71094 3.53841,-0.40873 4.17904,-0.93578 2.44224,-2.00917 -1.74863,-1.08073 -1.87148,-1.93798 -0.47752,-3.33194 1.39398,-1.39398 2.17713,-1.39103 3.04392,0.0111 0.86859,1.40538 1.7467,1.40731 3.43336,0.009 2.75388,-2.28554 9.07681,-0.56572 9.07681,2.46887 0,1.20347 1.49646,2.57944 3.32547,3.05775 4.32556,1.13116 4.26518,-1.11457 -0.10808,-4.02012 -2.29951,-1.52778 -3.06451,-3.2423 -2.31623,-5.19103 1.28574,-3.34827 6.72945,-3.91582 7.97406,-0.83137 0.46127,1.14313 0.89773,0.0209 0.96993,-2.4941 0.1406,-4.89996 1.62882,-5.73536 4.71647,-2.64771 1.45792,1.45793 2.54173,1.41281 4.46819,-0.18602 1.39888,-1.16096 3.84139,-1.61276 5.42779,-1.004 2.46789,0.94704 2.53098,1.33032 0.43683,2.65467 -1.97529,1.2492 -1.78986,1.55274 0.96112,1.57328 1.87474,0.0129 4.30649,-0.87242 5.4039,-1.96982 1.55188,-1.55187 2.00703,-1.09002 2.04815,2.07842 0.0625,4.81754 3.52567,9.88288 6.78138,9.91874 1.84998,0.0205 1.81344,0.34688 -0.18327,1.63728 -1.96942,1.27275 -1.60216,1.61717 1.74588,1.63727 6.58488,0.0395 8.81472,3.28559 4.7053,6.84967 -2.79074,2.42039 -4.14881,2.61478 -7.52405,1.07691 -3.24913,-1.48041 -3.9076,-2.71743 -3.11896,-5.85954 0.63904,-2.54616 0.3758,-3.5974 -0.72974,-2.91413 -0.95114,0.58785 -1.75212,0.0892 -1.77994,-1.10773 -0.0307,-1.32701 -0.71969,-1.02717 -1.76492,0.7682 -0.9429,1.61962 -2.22955,2.62637 -2.85922,2.2372 -0.62968,-0.38914 -1.14487,0.99631 -1.14487,3.07881 0,2.11036 0.82387,3.47021 1.86125,3.07213 1.50718,-0.57834 8.94654,10.77989 8.94654,13.65934 0,2.24337 -4.86292,0.35343 -5.47961,-2.12961 -0.39747,-1.60039 -0.46252,-0.82367 -0.14447,1.72603 0.35706,2.86316 -0.30713,4.9755 -1.73701,5.5242 -1.27332,0.48862 -2.77673,2.72752 -3.3409,4.97535 -0.71159,2.83524 -2.53166,4.38815 -5.94264,5.07035 -6.46265,1.29254 -4.96175,3.57073 1.70754,2.59187 3.1817,-0.46697 6.51922,-2.59324 8.69959,-5.54236 4.1333,-5.59058 11.2258,-6.64383 11.2258,-1.66708 0,2.1638 -1.65335,3.48316 -5.4039,4.31229 -2.97214,0.65708 -4.49559,1.55219 -3.38544,1.98915 1.57672,0.62063 1.58016,1.49635 0.0148,4.0014 -1.10151,1.76379 -2.61515,3.2069 -3.36362,3.2069 -0.74851,0 -0.98068,-0.61521 -0.51597,-1.36712 0.46472,-0.75195 -3.22584,-1.23817 -8.20124,-1.0805 -13.70939,0.43443 -19.64878,-5.42614 -12.97395,-12.80176 2.5843,-2.85562 2.53564,-3.04072 -0.79968,-3.04072 -2.40157,0 -3.88931,1.34594 -4.59481,4.15684 -0.57381,2.28626 -1.71042,4.15684 -2.52579,4.15684 -2.77917,0 -1.49223,5.90353 1.92473,8.82924 1.87396,1.60454 5.88245,3.01038 8.90778,3.12412 5.3854,0.20246 10.94409,5.35469 8.35678,7.74572 -0.6458,0.59682 -1.50823,0.14984 -1.91648,-0.9933 -1.03646,-2.90493 -3.78997,-2.60297 -3.78997,0.41475 0,3.12949 -2.32094,3.21384 -4.84215,0.17606 z m -18.43616,-46.55473 c 0,-0.35941 -1.12235,-1.08416 -2.49411,-1.61057 -1.37176,-0.52638 -2.4941,-0.23232 -2.4941,0.65348 0,0.88581 1.12234,1.61056 2.4941,1.61056 1.37176,0 2.49411,-0.29406 2.49411,-0.65347 z m 51.54483,-1.00927 c 0,-0.9145 -0.79239,-1.66273 -1.76088,-1.66273 -0.96847,0 -1.29843,0.74823 -0.73323,1.66273 0.56521,0.91451 1.35759,1.66274 1.76088,1.66274 0.40327,0 0.73323,-0.74823 0.73323,-1.66274 z M 230.11061,627.93923 c 0,-0.35941 -1.12235,-1.08415 -2.49411,-1.61056 -1.37176,-0.52638 -2.4941,-0.23232 -2.4941,0.65348 0,0.88581 1.12234,1.61056 2.4941,1.61056 1.37176,0 2.49411,-0.29407 2.49411,-0.65348 z m 38.24294,-4.33473 c 0,-0.91451 -0.79239,-1.66274 -1.76088,-1.66274 -0.96847,0 -1.29843,0.74823 -0.73323,1.66274 0.5652,0.9145 1.35759,1.66274 1.76088,1.66274 0.40327,0 0.73323,-0.74824 0.73323,-1.66274 z M 98.75444,618.61629 c 0,-0.91451 -0.32996,-1.66274 -0.733229,-1.66274 -0.403288,0 -1.195674,0.74823 -1.760875,1.66274 -0.565201,0.9145 -0.235241,1.66274 0.733229,1.66274 0.968489,0 1.760875,-0.74824 1.760875,-1.66274 z m 14.96463,-14.13847 c 0,-2.90787 -9.61271,-4.17232 -10.67494,-1.40416 -0.45435,1.18403 0.37144,2.82295 1.83511,3.64207 3.39328,1.89896 8.83983,0.52011 8.83983,-2.23791 z m 69.83491,-2.4889 c 0,-0.9145 -0.74823,-1.66273 -1.66273,-1.66273 -0.91451,0 -1.66274,0.74823 -1.66274,1.66273 0,0.91451 0.74823,1.66274 1.66274,1.66274 0.9145,0 1.66273,-0.74823 1.66273,-1.66274 z m 215.62885,-5.29997 c -0.53078,-1.32642 -0.92478,-0.93242 -1.00455,1.00457 -0.0722,1.7528 0.32078,2.73485 0.87328,2.18234 0.55251,-0.55251 0.61158,-1.98663 0.13118,-3.18691 z m 4.61273,-36.15354 c 1.66596,-2.69558 -1.95418,-3.51473 -4.10103,-0.92796 -1.67065,2.01302 -1.56881,2.4758 0.54486,2.4758 1.42975,0 3.03002,-0.69654 3.55617,-1.54784 z m 73.00135,-5.93448 c 0.52639,-1.37175 0.2323,-2.4941 -0.65347,-2.4941 -0.88582,0 -1.61057,1.12235 -1.61057,2.4941 0,1.37176 0.29407,2.49411 0.65348,2.49411 0.35941,0 1.08416,-1.12235 1.61056,-2.49411 z m -171.86316,-2.4941 c 0,-0.91451 -0.79239,-1.66274 -1.76088,-1.66274 -0.96847,0 -1.29843,0.74823 -0.73323,1.66274 0.56521,0.9145 1.35759,1.66274 1.76088,1.66274 0.40327,0 0.73323,-0.74824 0.73323,-1.66274 z M 417.99983,449.94669 c 0,-0.40329 -0.74823,-1.19567 -1.66273,-1.76087 -0.91451,-0.56521 -1.66274,-0.23525 -1.66274,0.73323 0,0.96848 0.74823,1.76087 1.66274,1.76087 0.9145,0 1.66273,-0.32996 1.66273,-0.73323 z m -172.92459,-3.42361 c 0,-1.37176 -0.29407,-2.49411 -0.65348,-2.49411 -0.35941,0 -1.08416,1.12235 -1.61056,2.49411 -0.52639,1.37176 -0.23232,2.4941 0.65347,2.4941 0.88582,0 1.61057,-1.12234 1.61057,-2.4941 z m 75.76639,-7.09331 c -1.50703,-1.50705 -6.1435,1.24822 -5.05743,3.00547 0.74496,1.20539 1.83228,1.13484 3.47101,-0.22521 1.31246,-1.08922 2.02632,-2.34034 1.58642,-2.78026 z m 0.19258,-37.28097 c -0.53078,-1.32642 -0.92477,-0.93243 -1.00455,1.00457 -0.0722,1.7528 0.32078,2.73485 0.87329,2.18234 0.55251,-0.55253 0.61157,-1.98664 0.13117,-3.18691 z m 218.34541,-3.01371 c 0,-0.91451 -0.74823,-1.66274 -1.66274,-1.66274 -0.9145,0 -1.66274,0.74823 -1.66274,1.66274 0,0.9145 0.74824,1.66273 1.66274,1.66273 0.91451,0 1.66274,-0.74823 1.66274,-1.66273 z m 75.54621,-4.39667 c -3.1042,-2.3248 -9.03675,-1.02097 -9.03675,1.98605 0,2.62786 8.63196,3.94357 10.36108,1.57925 0.66881,-0.91451 0.0728,-2.51888 -1.32433,-3.5653 z m 8.42198,-12.2307 c 0.5652,-0.9145 0.23524,-1.66273 -0.73323,-1.66273 -0.96849,0 -1.76087,0.74823 -1.76087,1.66273 0,0.91451 0.32996,1.66274 0.73323,1.66274 0.40328,0 1.19567,-0.74823 1.76087,-1.66274 z m -168.76777,-4.0587 c 0,-0.40329 -0.74824,-1.19567 -1.66274,-1.76087 -0.91451,-0.56521 -1.66274,-0.23525 -1.66274,0.73322 0,0.96849 0.74823,1.76088 1.66274,1.76088 0.9145,0 1.66274,-0.32996 1.66274,-0.73323 z m 39.90567,-4.25498 c 0,-0.9145 -1.3094,-1.65128 -2.90979,-1.63728 -2.48669,0.0218 -2.54714,0.25981 -0.41568,1.63728 3.13793,2.02789 3.32547,2.02789 3.32547,0 z M 336.52574,346.85703 c 0,-0.40329 -0.74823,-1.19568 -1.66273,-1.76088 -0.91451,-0.5652 -1.66274,-0.23524 -1.66274,0.73323 0,0.96849 0.74823,1.76088 1.66274,1.76088 0.9145,0 1.66273,-0.32996 1.66273,-0.73323 z m 53.20757,-0.92951 c 0,-0.91451 -1.3094,-1.65128 -2.90979,-1.63728 -2.48669,0.0218 -2.54714,0.25981 -0.41568,1.63728 3.13793,2.02789 3.32547,2.02789 3.32547,0 z m -59.49653,352.24323 c 0.40973,-1.23046 2.07853,-2.49573 3.70845,-2.81169 1.89554,-0.36746 2.69504,0.23173 2.21854,1.66274 -0.40974,1.23046 -2.07854,2.49573 -3.70846,2.81169 -1.89556,0.36746 -2.69504,-0.23173 -2.21853,-1.66274 z m 53.05801,-7.57181 c -1.66754,-1.78509 -1.77477,-2.9132 -0.40693,-4.28104 1.02148,-1.02148 1.85724,-1.21752 1.85724,-0.43562 0,0.78189 1.4222,0.13449 3.1604,-1.43851 3.92598,-3.55295 6.12879,-0.83492 3.16696,3.90771 -2.81738,4.51133 -5.05808,5.15882 -7.77767,2.24746 z m -274.51774,-8.38298 c 0.10734,-2.90231 9.75191,-10.43958 14.5984,-11.40887 5.68046,-1.13609 8.30557,1.79153 6.29783,7.02361 -0.82968,2.16211 -1.50457,2.28665 -3.48505,0.64298 -1.35087,-1.12113 -2.04609,-2.70188 -1.54493,-3.51276 1.20689,-1.95277 -1.15264,-1.83471 -4.27328,0.21387 -2.21699,1.45536 -2.21699,1.82203 0,3.30001 2.21698,1.47799 2.21698,1.84466 0,3.30002 -2.9272,1.92157 -11.66011,2.25389 -11.59297,0.44114 z m 88.89344,-3.76828 c -0.57442,-0.92941 -1.74092,-1.25939 -2.59225,-0.73323 -0.8513,0.52615 -1.54784,0.16424 -1.54784,-0.80424 0,-0.96849 0.68705,-1.76088 1.52675,-1.76088 2.87705,0 6.78694,2.01827 6.78694,3.50337 0,2.02211 -2.88476,1.88039 -4.1736,-0.20502 z m -1.64598,-6.62382 c 0.5652,-0.91451 1.9624,-1.66274 3.1049,-1.66274 1.37157,0 1.96188,-2.25944 1.73767,-6.65094 -0.39641,-7.76406 1.16665,-8.27519 7.11513,-2.32673 3.51231,3.51231 3.88836,4.61659 2.00286,5.88127 -1.54384,1.03551 -0.35221,1.2183 3.55755,0.54578 5.16326,-0.88816 5.87897,-0.59204 5.87897,2.43242 0,3.79531 -1.8998,4.63259 -3.09784,1.36525 -0.60967,-1.66273 -1.20271,-1.66273 -2.96521,0 -3.17045,2.99101 -4.76518,2.58273 -6.49491,-1.66273 l -1.52427,-3.74116 -1.11019,3.74116 c -0.75836,2.55551 -2.39724,3.74115 -5.17124,3.74115 -2.28395,0 -3.61137,-0.72759 -3.03342,-1.66273 z m -3.89432,-3.72804 c -1.29872,-1.29873 -0.81756,-2.66219 1.71454,-4.85826 4.48527,-3.89006 4.67388,-3.85269 4.67388,0.92609 0,4.45637 -3.62992,6.69067 -6.38842,3.93217 z m -24.3722,-4.58564 c 0.5652,-0.91451 1.35758,-1.66274 1.76087,-1.66274 0.40327,0 0.73323,0.74823 0.73323,1.66274 0,0.9145 -0.79238,1.66273 -1.76087,1.66273 -0.96847,0 -1.29843,-0.74823 -0.73323,-1.66273 z m -10.80777,-4.98821 c 0,-0.91451 0.74821,-1.66274 1.66272,-1.66274 0.9145,0 1.66273,0.74823 1.66273,1.66274 0,0.9145 -0.74823,1.66273 -1.66273,1.66273 -0.91451,0 -1.66272,-0.74823 -1.66272,-1.66273 z m 119.05118,-5.65141 c 0.49089,-1.27925 0.0933,-2.81985 -0.88356,-3.42359 -0.98423,-0.6083 -1.77608,0.11972 -1.77608,1.63312 0,2.95151 -3.55261,2.60363 -4.56965,-0.44748 -0.88348,-2.65044 5.7428,-5.79203 9.62065,-4.56123 3.3647,1.0679 4.55163,4.1369 1.59994,4.1369 -0.9145,0 -1.66273,1.12235 -1.66273,2.49411 0,1.37176 -0.72475,2.4941 -1.61057,2.4941 -0.88579,0 -1.2089,-1.04665 -0.718,-2.32593 z m 112.03793,-6.00706 c -3.31671,-2.04984 -0.8477,-3.96329 2.61416,-2.02593 1.55778,0.87177 2.13935,2.01333 1.29237,2.5368 -0.84698,0.52347 -2.6049,0.29357 -3.90653,-0.51087 z M 48.872345,632.62763 c 0,-1.54839 1.13127,-2.39663 2.772003,-2.07842 4.171418,0.80902 4.744194,4.69444 0.692031,4.69444 -2.042394,0 -3.464034,-1.07361 -3.464034,-2.61602 z m 67.340825,0.95329 c 0.5652,-0.91451 1.35759,-1.66274 1.76088,-1.66274 0.40327,0 0.73323,0.74823 0.73323,1.66274 0,0.9145 -0.79239,1.66273 -1.76088,1.66273 -0.96847,0 -1.29843,-0.74823 -0.73323,-1.66273 z M 90.440758,603.82956 c 0,-0.81667 1.122347,-1.91553 2.494105,-2.44194 1.51926,-0.58297 2.494104,-0.004 2.494104,1.48485 0,1.34306 -1.122347,2.44193 -2.494104,2.44193 -1.371758,0 -2.494105,-0.66818 -2.494105,-1.48484 z m -47.295266,-1.69058 c -1.201752,-1.9445 0.64008,-6.801 2.579274,-6.801 0.816663,0 1.484842,1.87058 1.484842,4.15684 0,4.10894 -2.252934,5.57471 -4.064116,2.64416 z M 467.1824,591.92041 c -1.7565,-1.77096 -2.69637,-3.7172 -2.08862,-4.32495 1.22475,-1.22473 7.77636,4.11465 7.77636,6.33749 0,2.25138 -2.24732,1.45619 -5.68774,-2.01254 z m -361.77701,-1.57064 c 0,-2.22168 1.10849,-3.32547 3.33955,-3.32547 2.92335,0 3.08073,0.41446 1.26279,3.32547 -1.14224,1.82901 -2.64506,3.32547 -3.33959,3.32547 -0.69452,0 -1.26275,-1.49646 -1.26275,-3.32547 z m 369.12748,-8.41182 c 0,-0.96847 0.74824,-1.29843 1.66274,-0.73323 0.91451,0.5652 1.66274,1.35759 1.66274,1.76087 0,0.40327 -0.74823,0.73323 -1.66274,0.73323 -0.9145,0 -1.66274,-0.79238 -1.66274,-1.76087 z M 167.75799,567.07146 c -0.5652,-0.91451 -0.23524,-1.66274 0.73323,-1.66274 0.96849,0 1.76087,0.74823 1.76087,1.66274 0,0.9145 -0.32996,1.66273 -0.73323,1.66273 -0.40329,0 -1.19567,-0.74823 -1.76087,-1.66273 z m 14.61078,-5.01714 c -2.02363,-0.8145 -4.63536,-3.01177 -5.80386,-4.88283 -2.80093,-4.48499 -6.31282,-4.34253 -6.31282,0.2561 0,2.62902 -0.50732,3.1507 -1.80349,1.85452 -0.99196,-0.99195 -1.55313,-3.47689 -1.24706,-5.52211 0.44951,-3.00402 1.83456,-3.84009 7.20739,-4.35068 7.51374,-0.71404 14.67114,2.22298 13.41221,5.50369 -0.46052,1.20011 -0.11251,2.18203 0.77323,2.18203 0.88581,0 1.61056,-1.3805 1.61056,-3.06777 0,-3.34395 -4.9052,-8.57139 -8.04301,-8.57139 -1.46856,0 -1.43959,-0.83584 0.11529,-3.32547 2.55335,-4.08856 4.35908,-4.18926 7.45212,-0.41568 1.31175,1.60038 1.85957,1.89084 1.21733,0.64547 -1.08959,-2.11289 1.68422,-5.13446 4.76677,-5.19254 1.83924,-0.0345 0.71946,7.16532 -1.34347,8.63825 -0.99074,0.70738 -0.32357,2.20848 1.66273,3.74115 3.13709,2.42065 3.15924,2.6827 0.40759,4.8215 -1.60038,1.24395 -2.90978,2.84498 -2.90978,3.55785 0,1.34166 -5.18364,5.75399 -6.65095,5.6613 -0.45725,-0.029 -2.48707,-0.71891 -4.51069,-1.53339 z m -21.67741,-7.59856 c 0,-2.49682 0.76312,-3.45495 2.28626,-2.87046 1.25745,0.48253 2.28626,2.16902 2.28626,3.74777 0,1.57875 -1.02881,2.87046 -2.28626,2.87046 -1.26364,0 -2.28626,-1.67633 -2.28626,-3.74777 z m 321.32383,2.63928 c -0.5652,-0.91451 -0.23524,-1.66274 0.73323,-1.66274 0.96849,0 1.76087,0.74823 1.76087,1.66274 0,0.9145 -0.32996,1.66273 -0.73323,1.66273 -0.40328,0 -1.19567,-0.74823 -1.76087,-1.66273 z M 284.40193,545.73478 c -3.36994,-3.72374 -3.54961,-6.92984 -0.38838,-6.92984 1.29697,0 3.54167,-0.45417 4.98821,-1.00927 1.9634,-0.75342 2.6301,0.0379 2.6301,3.12188 0,6.09554 -3.7886,8.61983 -7.22993,4.81723 z M 172.7462,540.7179 c 0,-6.24012 6.12764,-11.36828 9.18381,-7.68584 1.67011,2.01234 1.45502,2.4474 -1.20992,2.4474 -2.65543,0 -3.10882,0.90139 -2.509,4.98821 0.59,4.01984 0.13062,4.98821 -2.36638,4.98821 -2.29794,0 -3.09851,-1.22418 -3.09851,-4.73798 z m 77.31724,1.41251 c 0,-0.91451 0.74824,-1.66274 1.66274,-1.66274 0.91451,0 1.66274,0.74823 1.66274,1.66274 0,0.9145 -0.74823,1.66274 -1.66274,1.66274 -0.9145,0 -1.66274,-0.74824 -1.66274,-1.66274 z m -19.55112,-9.42799 c 1.56795,-1.56795 3.8442,-2.21375 5.52692,-1.56804 3.61459,1.38706 2.75248,2.24917 -3.35703,3.35703 -4.43697,0.80458 -4.61594,0.65704 -2.16989,-1.78899 z m 225.31477,-6.80538 c -4.2708,-2.0905 -6.58536,-8.70768 -3.04578,-8.70768 0.83972,0 2.67896,-0.44214 4.08722,-0.98255 1.77874,-0.68257 2.89058,0.33274 3.64173,3.32548 1.1622,4.63063 4.0462,5.92351 4.0462,1.81391 0,-1.37175 1.12234,-2.4941 2.4941,-2.4941 5.07803,0 1.59601,8.77895 -3.60821,9.09711 -1.67351,0.10216 -5.10037,-0.82115 -7.61526,-2.05217 z m 3.96234,-11.40307 c -3.01963,-3.41282 -0.37702,-5.64918 4.47714,-3.78887 3.44216,1.31916 3.59219,1.75675 1.36582,3.98312 -3.01888,3.01888 -2.99946,3.01953 -5.84296,-0.19425 z M -157.30698,500.562 c 0,-0.91451 0.74823,-1.66274 1.66273,-1.66274 0.91451,0 1.66274,0.74823 1.66274,1.66274 0,0.9145 -0.74823,1.66273 -1.66274,1.66273 -0.9145,0 -1.66273,-0.74823 -1.66273,-1.66273 z m 412.64852,-10.1431 c -3.51983,-1.34894 -3.63178,-1.71717 -1.24705,-4.10188 2.38472,-2.38473 2.86406,-2.37577 5.33966,0.0998 3.48866,3.48866 0.97687,5.94486 -4.09261,4.00204 z m 3.75631,-8.82719 c -1.1622,-4.63063 -4.0462,-5.92352 -4.0462,-1.81392 0,1.37176 -1.12234,2.49411 -2.4941,2.49411 -2.86364,0 -3.183,-2.25691 -0.91816,-6.48878 2.71683,-5.07648 16.71416,-1.06936 16.71416,4.78488 0,1.85164 -0.68705,3.36663 -1.52675,3.36663 -0.83972,0 -2.67896,0.44214 -4.08722,0.98255 -1.77874,0.68257 -2.89058,-0.33273 -3.64173,-3.32547 z M 482.01519,468.97 c -0.5652,-0.9145 -0.0482,-1.71999 1.14891,-1.78995 1.19712,-0.07 3.52772,-0.384 5.17915,-0.69787 2.42377,-0.46062 2.62491,-0.11565 1.04344,1.78995 -2.27821,2.74509 -5.89466,3.08747 -7.3715,0.69787 z m 55.66293,-0.87807 c -1.67011,-2.01234 -1.45502,-2.44738 1.20992,-2.44738 2.65543,0 3.1088,-0.90139 2.50899,-4.98821 -0.58999,-4.01983 -0.13061,-4.98821 2.36639,-4.98821 4.51319,0 4.17306,8.66542 -0.47781,12.17358 -3.13677,2.36605 -3.82598,2.39681 -5.60749,0.25022 z m -109.70187,-7.75652 c 0,-6.10813 3.26931,-8.55901 6.96079,-5.21824 3.59687,3.25512 3.9572,7.20191 0.65752,7.20191 -1.29697,0 -3.54167,0.45416 -4.98821,1.00926 -1.94937,0.74804 -2.6301,-0.0266 -2.6301,-2.99293 z m 95.08717,-0.0948 c 0.28611,-2.05764 1.26479,-4.27279 2.17484,-4.92255 0.99072,-0.70739 0.32357,-2.20849 -1.66273,-3.74116 -3.13711,-2.42065 -3.15926,-2.6827 -0.40759,-4.82149 1.60036,-1.24395 2.90978,-2.93455 2.90978,-3.75688 0,-0.82232 1.47173,-2.41424 3.2705,-3.5376 4.0524,-2.53076 10.66828,-0.35503 13.70464,4.50701 2.79266,4.47175 6.30318,4.32051 6.30318,-0.27154 0,-2.62903 0.50732,-3.1507 1.80349,-1.85453 0.99195,0.99195 1.55313,3.4769 1.24705,5.52212 -0.44951,3.00401 -1.83455,3.84007 -7.20739,4.35068 -7.51374,0.71403 -14.67113,-2.22299 -13.41222,-5.5037 0.46054,-1.20011 0.11251,-2.18203 -0.77321,-2.18203 -0.88581,0 -1.61056,1.3805 -1.61056,3.06777 0,3.34395 4.9052,8.57139 8.04301,8.57139 1.46856,0 1.43959,0.83584 -0.11529,3.32547 -2.55335,4.08856 -4.35908,4.18927 -7.45212,0.41569 -1.31177,-1.60039 -1.85957,-1.89085 -1.21733,-0.64548 0.64688,1.25443 0.14558,2.91166 -1.12375,3.7157 -3.74195,2.37012 -5.02592,1.72766 -4.47439,-2.23886 z m -56.84423,-1.24704 c 0,-0.9145 0.74823,-1.66273 1.66274,-1.66273 0.9145,0 1.66273,0.74823 1.66273,1.66273 0,0.91451 -0.74823,1.66274 -1.66273,1.66274 -0.91451,0 -1.66274,-0.74823 -1.66274,-1.66274 z m 90.20348,-9.41487 c -2.82093,-1.13828 -2.64863,-6.65825 0.20784,-6.65825 1.28664,0 2.28626,1.69635 2.28626,3.87972 0,2.13385 -0.0935,3.82064 -0.20784,3.74846 -0.11436,-0.0722 -1.14313,-0.50867 -2.28626,-0.96993 z m -321.32385,-5.64789 c 0,-0.96847 0.74823,-1.29844 1.66273,-0.73323 0.91451,0.5652 1.66274,1.35758 1.66274,1.76087 0,0.40327 -0.74823,0.73323 -1.66274,0.73323 -0.9145,0 -1.66273,-0.79239 -1.66273,-1.76087 z m 314.25722,-9.97642 c 0,-0.96847 0.74823,-1.29843 1.66273,-0.73323 0.91451,0.5652 1.66274,1.35758 1.66274,1.76087 0,0.40327 -0.74823,0.73323 -1.66274,0.73323 -0.9145,0 -1.66273,-0.79238 -1.66273,-1.76087 z M 242.58113,419.08793 c -0.5652,-0.91451 -0.23524,-1.66274 0.73323,-1.66274 0.96849,0 1.76088,0.74823 1.76088,1.66274 0,0.9145 -0.32997,1.66273 -0.73323,1.66273 -0.40329,0 -1.19568,-0.74823 -1.76088,-1.66273 z m 6.64171,-8.32388 c -1.6603,-1.83461 -2.59562,-3.75879 -2.0785,-4.27592 1.08121,-1.08118 7.90731,4.37324 7.90731,6.31838 0,2.32434 -2.7485,1.36125 -5.82881,-2.04246 z m 360.37758,0.0111 c 1.14224,-1.82901 2.64506,-3.32547 3.33958,-3.32547 0.69451,0 1.26276,1.49646 1.26276,3.32547 0,2.22168 -1.10849,3.32547 -3.33955,3.32547 -2.92335,0 -3.08074,-0.41446 -1.26279,-3.32547 z m 62.79812,-9.14594 c 0,-4.10893 2.25293,-5.57471 4.06411,-2.64415 1.20176,1.94449 -0.64008,6.80099 -2.57927,6.80099 -0.81666,0 -1.48484,-1.87057 -1.48484,-4.15684 z m -48.21936,-3.37764 c 0,-1.34307 1.12235,-2.44193 2.4941,-2.44193 1.37176,0 2.49411,0.66817 2.49411,1.48484 0,0.81666 -1.12235,1.91553 -2.49411,2.44193 -1.51926,0.58297 -2.4941,0.004 -2.4941,-1.48484 z m 41.01417,-28.49147 c -2.108,-2.108 -1.0956,-3.87972 2.21698,-3.87972 1.84748,0 3.32547,1.10849 3.32547,2.4941 0,2.53137 -3.51735,3.4107 -5.54245,1.38562 z m -64.29248,-2.21699 c 0,-0.9145 0.79238,-1.66273 1.76087,-1.66273 0.96847,0 1.29843,0.74823 0.73323,1.66273 -0.5652,0.91451 -1.35758,1.66274 -1.76087,1.66274 -0.40327,0 -0.73323,-0.74823 -0.73323,-1.66274 z M 328.61738,356.46203 c -1.14882,-0.46317 -1.68603,-1.49377 -1.19381,-2.29024 1.07768,-1.74369 5.7767,-0.18997 5.7767,1.91004 0,1.60161 -1.2882,1.70848 -4.58289,0.3802 z m 110.99803,-2.37288 c -1.87692,-1.32736 -1.97979,-1.97254 -0.41569,-2.60719 1.14313,-0.46386 2.07842,-1.90335 2.07842,-3.1989 0,-1.29555 0.72475,-2.35554 1.61057,-2.35554 0.88577,0 1.2089,1.04666 0.718,2.32591 -0.49089,1.27927 -0.0933,2.81987 0.88356,3.42361 0.97684,0.60372 1.77608,-0.0689 1.77608,-1.49454 0,-3.03119 2.60511,-3.44028 4.31274,-0.67727 1.204,1.94812 -3.50304,6.4196 -6.70896,6.37325 -0.96834,-0.0129 -2.88296,-0.81919 -4.25472,-1.78933 z m 72.01051,-14.14859 c -3.51231,-3.51231 -3.88836,-4.61659 -2.00286,-5.88127 1.54383,-1.03551 0.35221,-1.2183 -3.55755,-0.54578 -5.16328,0.88816 -5.87899,0.59203 -5.87899,-2.43242 0,-3.7953 1.89982,-4.63258 3.09786,-1.36525 0.60967,1.66274 1.20271,1.66274 2.96521,0 3.17045,-2.99101 4.76518,-2.58273 6.49491,1.66274 l 1.52427,3.74115 1.11019,-3.74115 c 0.75835,-2.55552 2.39724,-3.74116 5.17124,-3.74116 2.28395,0 3.61137,0.72759 3.03342,1.66273 -0.5652,0.91451 -1.9624,1.66274 -3.1049,1.66274 -1.37157,0 -1.96188,2.25944 -1.73767,6.65095 0.39641,7.76405 -1.16665,8.27518 -7.11513,2.32672 z m 47.70653,2.66149 c 0,-0.91451 0.74824,-1.66274 1.66274,-1.66274 0.91451,0 1.66274,0.74823 1.66274,1.66274 0,0.9145 -0.74823,1.66273 -1.66274,1.66273 -0.9145,0 -1.66274,-0.74823 -1.66274,-1.66273 z m -38.24293,-5.64169 c 0,-4.45637 3.6299,-6.69066 6.38841,-3.93217 1.29873,1.29873 0.81757,2.66219 -1.71457,4.85826 -4.48525,3.89007 -4.67384,3.85269 -4.67384,-0.92609 z m 28.26652,0.65348 c 0,-0.91451 0.79238,-1.66274 1.76087,-1.66274 0.96847,0 1.29843,0.74823 0.73323,1.66274 -0.5652,0.9145 -1.35759,1.66273 -1.76087,1.66273 -0.40327,0 -0.73323,-0.74823 -0.73323,-1.66273 z m 40.58475,-8.94233 c -0.56917,-1.48327 -0.57185,-3.90344 -0.007,-5.37819 0.82969,-2.16212 1.50458,-2.28666 3.48506,-0.64298 1.35088,1.12112 2.04611,2.70187 1.54494,3.51275 -1.2069,1.95277 1.15263,1.83472 4.27327,-0.21387 2.21698,-1.45535 2.21698,-1.82202 0,-3.30001 -2.21696,-1.47799 -2.21696,-1.84466 0,-3.30002 2.92721,-1.92157 11.66011,-2.25389 11.59297,-0.44114 -0.10752,2.90231 -9.75191,10.43957 -14.59838,11.40887 -3.97943,0.79588 -5.50856,0.39599 -6.29193,-1.64541 z m -70.46587,-4.29463 c -1.34526,-0.85076 -1.92452,-2.06829 -1.28723,-2.70558 0.63729,-0.63729 2.18094,-0.31034 3.43032,0.72654 1.24938,1.0369 2.76391,1.39291 3.36565,0.79119 0.60173,-0.60175 1.09406,-0.22113 1.09406,0.84579 0,2.3195 -3.21285,2.48594 -6.6028,0.34206 z m -191.81348,-6.158 c -1.76044,-1.76045 -1.34621,-3.00502 2.30418,-6.92326 3.11456,-3.3431 3.64845,-3.43477 6.04523,-1.03801 1.96205,1.96208 2.14992,3.10799 0.74055,4.51736 -1.03862,1.03862 -1.88839,1.24866 -1.88839,0.46677 0,-0.7819 -1.37013,-0.18161 -3.04473,1.33381 -1.67458,1.51551 -3.54516,2.25498 -4.15684,1.64333 z m 55.7829,-14.11667 c 0.40974,-1.23046 2.07854,-2.49573 3.70846,-2.81168 1.89554,-0.36747 2.69504,0.23173 2.21853,1.66273 -0.40973,1.23046 -2.07853,2.49573 -3.70845,2.81169 -1.89556,0.36747 -2.69504,-0.23173 -2.21854,-1.66274 z m -18.23639,-9.29262 c -3.57616,-1.21136 -2.4612,-7.07785 1.34519,-7.07785 1.88297,0 3.00961,0.66983 2.50364,1.48852 -1.09024,1.76403 4.06803,4.0754 5.53421,2.47982 0.55499,-0.60398 0.0739,-1.43217 -1.06936,-1.84044 -4.11187,-1.46853 -1.97611,-3.82945 2.49411,-2.75704 5.85824,1.4054 5.89599,1.4475 4.69348,5.23623 -0.76244,2.40225 -2.55347,3.19248 -7.21844,3.18488 -3.41244,-0.006 -7.1397,-0.32689 -8.28283,-0.71412 z m 9.56073,-10.40332 c -1.37175,-0.8865 -2.11999,-1.67379 -1.66273,-1.7495 7.48196,-1.23903 11.63915,-1.26659 11.63915,-0.0772 0,1.38438 -3.92792,3.51988 -6.37125,3.4639 -0.61108,-0.0148 -2.23341,-0.75068 -3.60517,-1.63718 z"
       id="path3547"
       inkscape:connector-curvature="0" />
  </g>
</svg>
